<?xml version="1.0" encoding="UTF-8"?>
<svg id="Layer_2" xmlns="http://www.w3.org/2000/svg" version="1.1" xmlns:xlink="http://www.w3.org/1999/xlink" viewBox="0 0 4528 4118">
  <!-- Generator: Adobe Illustrator 29.8.2, SVG Export Plug-In . SVG Version: 2.1.1 Build 3)  -->
  <defs>
    <style>
      .st0 {
        isolation: isolate;
      }

      .st1 {
        fill: #006ead;
      }
    </style>
  </defs>
  <g>
    <path class="st1" d="M3675.5,1867c.8,7.9,1.5,15.8,2.2,23.8,1.4.4,2.8,0,4.2-1.7,1.3-1.6-3.1-12.2-6.4-22.1h0ZM2719.8,769.9c-3.7-3.8-22.6,4.2-26.6,3.6-2.5-.4-17-35.5-25.8,10.7h52.5c-.6-3.8.9-13.3,0-14.3h0ZM3686.7,2227.3c.2-4.7.2-9.5,0-14.3-.3-10.2-.9-20.5.3-30.6,9.4-76.3,13.4-151.3,11.8-225.4-5-230.1-63.4-449.9-176.4-663.4-176.9-334.1-513.6-591.1-877.9-689.2-663.2-178.6-1362.4,139.5-1659.3,744-18.9,38.5-36.2,78.2-51.8,119-59.5,156.3-89.1,318.5-99.4,485.4-2.2.6-4.4,1.2-6.6,1.8-.6,16-1,32.1-1.1,48.2,6.5.6,10.7,4.6,12.2,17,7.8,64.4-7.6,141.6,14.1,207.4-1.5,1.1-5.4,1.2-11.1.7,2.3,16,4.9,31.9,7.7,47.7,2.9.7,5.8,1.4,8.6,2.2,103,578.9,549.3,1038.2,1123.5,1161.7,62.6,13.5,125.3,22.4,187.7,27.1,564.3,42.2,1103.7-267.5,1367.6-772.4,73.2-140.1,124.4-289.5,146.3-446.7,1.2-6.7,2.4-13.5,3.6-20.2h.2ZM1785.5,3078.2c-2.8-15.2-35.8-25.4-37.2-27.3-2.2-2.9,6.9-61.7,3.9-72.4-3.1-11.2-19.6-11.7-23.2-22.4,31.7,5.1,54.6-17.6,83.5-24.3l83.2,186.2c-17.3-3.6-107.1,4.8-114.3,0-11.7-7.7,4.8-35.5,4.1-39.8ZM1791,2917.9c-1.3-5.3.6-9.3,2.5-14,1.9-4.6,11.4-21.6,16.5-24-.5,22.8,16.8,51.2-19,38ZM2295.8,3449.1c-4.5-30.5,9.1-62.2,4.8-93h95.3c-8.1,25.2-50.1,79.2-80.3,95.5-4.5,2.4-8.7,4-12.6,4.5-7.9,1.1-7.1-.1-7-4,0-.9,0-1.9-.2-3.1h0ZM3239.2,2920.1c-14.6-2.3-29-.9-43.1-4.5,59.5-80.9,95.2-175.5,140.5-264.4h126.2c7.7,6.9-85.7,164.9-97,181.6-11.3,16.6-59.5,83.3-73.2,88.8-4.6,1.8-10.6.9-15.5,1.2,0,5.7,10.3,7.6,7.5,14.2-4,9.1-49,57.7-59.7,69.2-37.9,41.1-80.8,78.1-119.3,118.8-19.7,9.1-53.1-8-76.1-2.3,54.9-60.8,108.8-122.4,154.8-190.5h83.4c-1.7-7.9-21.7-11.1-28.3-12.2h-.2ZM3448.5,2074.9c48.2-3.8,96.1,1.8,142.9-4.7l-14.5,180.7c-19.8-3.3-130.5,22.8-138.1,17.3-14.2-10.2,3.5-65.2,4.9-81.4,3.3-36.8,4.2-74.9,4.8-111.9h0ZM3448.5,2060.6v-61.9c13.9,5.1,30.8,55,23.9,61.9h-23.9ZM3660.8,2298.6c1.4,5.2-3.5,9.7-5.1,9.7h-73.8c-1.7-1.7,3.3-45.7,5-47.3,2.1-2,48.7-8.5,56.5,2.5.8,1.1,8.5,16.4,13.4,26.4h0c2.2,4.6,3.9,8.1,4,8.6h0ZM3569.9,2265.3c7.3.7,8.2-2.1,7,7-.9,6.9-2.7,36.1-4.5,36.1h-142.9c1.1-6-2.2-20,.5-23.3,4.5-5.4,121.3-12.5,139.9-19.7h0ZM3567.6,2317.8c-15.6,107.5-51.1,211-90.9,311.6l-11.5,7.6c-40.4-1.6-83.7,10.1-124,4.8-16.2-2.2.1-13.5,4.8-23.8,41-90.8,59.8-202.4,78.6-300h142.9v-.2ZM2705.5,3384.7c.1-1.4,1-2.8,2.5-4.3,8.1-8.3,33.6-16.5,35.6-14.7.6.6,1.1,1.1,1.3,1.7,4.1,9.2-32.7,21.4-39.4,17.2h0ZM2343.5,3446.7c1.4.7,1.1,2.4-.4,3.7-1.8,1.7-5.4,2.9-9.1,1-.2-.1-.4-.3-.6-.4-1.8-2.1,3.8-7.4,10-4.2h.1ZM2565.7,3390.2c20.4-9.9,40.9-19.8,61.3-29.7l48,1.5c-13,6-29,13.1-47.6,20.5-3.8,1.5-21.1,8-39.9,15.2-31.8,12-67.9,24.7-101.2,29.7l79.3-37.3h0ZM2415,3437.1c23.7-13.9,47.5-27.9,71.2-41.8,16.3-13.1,32.7-26.2,49-39.3,25,.3,50,.7,75.1,1-3.2,1.8-8.1,4.4-14.3,7.2,0,0-3.3.8-6.1,2.6-47.5,30.5-120.5,54.5-174.8,70.2h0ZM2681.6,3368l28.6-2.3-64.2,28.6-54.9,14.1,90.4-40.5h0ZM2638.8,3349c90.7-58.7,166.8-134.1,235.8-216.7h121.5c1.1,9.6-8,15.8-14.2,21.5-16.6,15.4-84.8,84.4-225.5,165.1-14.8,8.5-36.8,20.7-64.4,34.6-17.7-1.5-35.4-2.9-53.1-4.4h-.1ZM2734.1,3263.3c-12.4,10.9-105,83.3-112,83.3h-78.6c61.3-63.9,119.7-133.8,157.2-214.3h157.2c-37.2,44.4-80.2,92.7-123.8,131.1h0ZM2524.4,3345.7c-34.7-.9-69.4-1.7-104.2-2.6,16.5-29.1,33.5-62.9,49.4-101.5,15.8-38.5,27.5-74.5,36.2-106.7,11.1-15.9,34.2-3.1,49.5-2.6,45,1.5,91.2,0,136-2.5-19.4,36.3-45.3,78-79.6,121.5-29.9,37.9-59.9,69.1-87.2,94.3h0ZM2510.2,3356.1c-43.6,42.1-100.1,75.6-159.5,90.5-7.9-4.8,1.5-10.6,4.7-14.4,19.7-23.8,44.5-45.2,54.8-76.2h100ZM2750.1,3355.4c-11.4-.5-22.8-1-34.2-1.5,55.6-29.7,101.2-58.7,136.2-82.7,36.5-25,75.1-55.7,125-98.4,6.3-5.4,33.1-35.8,35.7-35.8h73.8c-42.5,37.2-93.3,77.1-152.8,116.3-65.7,43.3-128.2,76.5-183.6,102.1h0ZM3012.7,3122.7h-126.2l119-188.2,8.3-6.5c7-1.7,11.5,4.3,13.3,4.3h145.3c-15.7,23.8-147.1,190.5-159.6,190.5h-.1ZM2936.1,3027.1c-20.5,31.3-42.6,61.9-66.3,90.9h-159.6c38.1-58.7,59.6-127,90.4-188.2,63.6-6.5,127,7.1,190.6-2.3,5.5,5.2-47.7,88.2-55.1,99.6h0ZM2700.7,3118h-190.5l50.6-190.8,225.7.3-85.7,190.5h-.1ZM2500.7,3118h-195.3v-190.5h238.2l-42.9,190.5ZM2495.9,3127.5c-23.2,73.6-47.7,148-88.1,214.3h-107.2l4.8-214.3h190.5ZM2063.8,3396.8c-28.6-13.6-54.3-27.8-77.4-41.9,15.7.3,31.4.5,47.2.7,10.4.1,20.8.2,31.2.3,18.4,15,36.8,30,55.2,45l59.1,41c-34.9-10.8-73.9-25.4-115.3-45.1ZM2089.9,3435.1c-33.7-8.9-58.3-19.1-103.7-38-32.2-13.5-59.6-26-81-36.2,10.1-1,20.4-2,30.7-3.1,9.9-1.1,19.7-2.2,29.4-3.3,33.2,21.5,73.9,44.2,122,64.3,32.6,13.6,63.4,23.9,91.4,31.7-36.2-3.1-66.2-9.3-88.9-15.3h.1ZM2167.2,3341.8c-32.6,0-65.3.2-97.9.3-22.7-23.2-46.9-50.8-70.8-83.1-34.9-47.1-60.3-92.4-78.9-131.4,23.8.8,47.8,1.3,72.3,1.7,33.8.5,66.9.6,99.5.4,8.6,33.5,19.3,69.7,33,107.9s28.3,73,42.9,104.3h0ZM2105.3,3127.5c28.7,2,59.4,3.2,91.8,3.2s64.6-1.2,94-3.3l-4.8,214.4h-102.4c-16.4-5.1-77.3-185.3-78.6-214.3h0ZM2086.3,3356.1c22.4,4.3,69.4-5.9,88.1,0,4.6,1.4,23.3,39.1,29,47.2l37.6,48.1c-58-18.7-114.1-49.9-154.8-95.3h0ZM2191.1,3356.1h95.3v100c-4.7-.7-9.2-1.9-13.6-3.5-39.3-14.3-65.6-60.6-81.6-96.5h0ZM2291.1,3118h-190.5l-38.1-190.5c76.4,5.5,150.9-1.9,228.6,0,7.7,63.5-3.2,126.3,0,190.5ZM2091,3118h-178.6c-16.9-19.3-87.3-177-78.6-185.7,26.6,0,53.3.1,79.9.2h79.9c18.5-.8,37-1.6,55.4-2.3,14,62.6,28,125.3,42,187.9h0ZM1902.9,3132.3c18.3,34.2,41.4,72.4,70.5,112.2,28.2,38.7,56.6,71.4,82.8,98.7h-83.7c-7.3-4.3-17.4-10.6-28.9-19-15.9-11.6-26-20.9-33.6-27.6-11.3-9.9-87.9-84.7-90.4-90.6-4.2-9.9,6.9-6.5,11.9-7,10.6-1,18.8,1.3,29.7-3.7,33-15.2-16.7-21-30.7-28.7-12.2-6.7-29.9-23.5-39.5-34.4h111.9ZM1800.5,3160.9l47.6,23.8c1.4,8-12,5.4-16.3,4.5-13-2.9-30.5-13-31.2-28.3h0ZM1867.7,3272.3c13.3,12.9,27,24.4,41.8,36.9,17.2,14.5,32.2,26.4,43.4,35.1-7.6.7-19,1.8-32.9,3.4-17.7,2-29.8,3.9-31.5,3.9-21.7,0-126.2-75.5-149.4-93.5-47.7-37.2-93.7-80.6-133.9-125.7,28.1,5.1,82.9-6.9,107.2,0,3.6,1,19.3,20.9,26.5,25.9,15.4,10.6,42.1,20.4,54.5,31.2,23.1,20.1,50.8,60.1,74.2,83v-.2ZM1695.7,3122.7c-32.6-.3-65.2-.6-97.8-.9-24.1-26.4-49.1-55.7-74.3-88.1-27.6-35.5-51.7-70-72.8-102.6,22.6.4,45.5.6,68.6.8,19.7.1,39.2,0,58.6,0,19.1,24.7,32.2,45.9,40.6,60.8,7.4,13.1,11.5,21.8,21.3,38.2,11.6,19.5,22.2,34.7,29.3,44.5,8.8,15.8,17.7,31.5,26.5,47.3h0ZM1576.6,3122.7h-111.9c-39.7-37.9-80.8-80.8-121.9-129.2-18.9-22.3-36.7-44.4-53.3-66h141.8l145.3,195.3h0ZM1590.8,3134.7c32.8,36.4,74,77.1,124.7,117.6,55.6,44.4,109,77.7,155.1,102.6-17.4.1-34.9.3-52.3.4-120.4-54.3-237.9-125.7-332.2-218.3,34.6-3.5,69.9-9,104.7-2.3h0ZM1886.6,3362.8c45.6,22.4,83.4,38.1,109.5,48.3,33.2,13,63.8,23.5,63.1,26-.6,1.9-18.3-1.7-34.7-5.4-37.1-10.9-76.2-23.9-116.9-39.6-22.3-8.6-43.7-17.5-64.2-26.5,14.4-1,28.8-2,43.3-2.9h-.1ZM2763.2,3360.6l161-88.2c34.9-23.8,70.7-46.5,104.8-71.4,16.4-12,70.8-62.9,84-63.7,8.6-.5,19.4,4.4,29.9,5.3s7,.2,10.3-.7c-67.8,56.4-143,106.3-220.7,148.4-51.4,27.8-112.5,61.5-169.9,70.6l.5-.3h0ZM3174.9,3127.7c-6.7,3.9-13,4.8-19.2,4.4-11.5-.8-22.7-5.9-35.8-4.7,63.3-56.9,118.7-121,173.6-186,14.9-8.5,38.2-4.3,57.6-4,4.1,0,8,0,11.7-.5-29.4,35.1-60.3,70.3-92.6,102.8-20.5,20.6-73.9,75.4-95.2,88h-.1ZM3360.8,2925.6l-50.4-3c47.9-58,88-121.6,124.7-187.3,9.6-17.2,34.8-81.5,49.2-84.2,14.7-2.8,34.7.9,51.5.6,2.8,0,5.4-.2,8-.5-43.3,98.7-105,188-167.6,275.3l-15.3-.9h0ZM3540.6,2641.9c-18.1-.2-48.3-7.8-58.6-7.4,48.4-94.9,74.3-200.6,95.2-304.8l7.1-11.9h73.8c-18.2,111.6-58.2,218.3-104.3,320.9-1.9,2.5-6.8,3.3-13.3,3.2h.1ZM3686.7,2163.1c-.9,6.9-3.6,14.8-9.5,7,.6-7.3.1-15.2-.2-23.1h0c-.4-7.7-.7-15.3.2-22.2.4-2.9,1.1-6,2.2-8,1.6-2.8,3.9-3.5,7.3,1-1.2,14.5,1.8,31.2,0,45.3ZM3686.7,2108.2c-2.3,2.7-4.6,2.4-6.7.2-7.9-8-13.8-41.7-12.3-43,6.1-5.5,10.9-2.9,14.3,3.2,6.1,10.9,7.8,33,4.7,39.6ZM3643.8,1974.9c-9.6-10.1-7.8,12.2-14.2,9.5,14-29.9-10.9-56.8,0-85.7l52.7,72.8,4.3,5.9c-.2,12.9,4.5,54.5-4.1,73-4.1,8.9-11.3,12.4-23.7,4.7-2.5-1.6-23.4-48.9-24.3-54.2-1.7-9.8-2.1-13.6,9.3-11.7l8.5,21.1c-3.2-9.6-7.2-34.1-8.5-35.4h0ZM3139.6,883.8s-7.3-3.4-14.5-7.5c-8.1-4.7-81.1-51.2-180.6-115.3-36.1-20.8-72.2-41.5-108.3-62.3l-68.9-38.4c149.4,46,280.1,136.6,404.8,228.6.4,9.3-21.3-.4-24.5-1.7-2.7-1.1-5.4-2.2-8.1-3.5h.1ZM2878,880.3c-7.2-1.3-15.5,3.1-20.4,1.3-13.8-5.2-21.8-24.2-23.4-28.5-7.4-19.5-35.9-52-123.2-109.4l-75.7-58.2c-3.9-2.6-7.7-5.2-11.6-7.9,14.3-1.1,29.3-2.7,44.8-4.8,9.5-1.3,18.7-2.7,27.6-4.3,33.4,17.3,69.5,38,107.2,63,38.8,25.7,72.8,51.6,102.3,76.3-17.2-.7-26.8-13.4-45.3-14.3-10.9-.5-9.2,11.6-7,14.2,2.3,2.7,58.6,17.1,67.6,20.6l32.3,15.2c-6.6,9.1-21.6,7.7-28.6,14.5-3.9,3.8-3.4,11.1-6.5,14.8-21.6,25.2-15,12.1-40,7.4h-.1ZM2919.8,931.8c-6,3.2-16.6-7.6-14.3-9.4,6-3.2,16.6,7.6,14.3,9.4ZM2900.7,917.5c-3.9,3.8-35.1-17.6-28.5-23.8,8-3.5,35,17.4,28.5,23.8ZM2455.5,1082.4c11.5,3.9,25.7-1.4,35.7-13.4,1.3,2.4,2.8,6,1.8,9.8-2.6,9.9-21.9,7.8-25.2,18.1-4.4,13.8,11.5,25.7,9.1,39.6-41.9-7-37.1,33.9-66.7,38.1,5.4-24.8-15.3-33.5-25.9-52.7-9.8-17.7-9.9-37.3-26.5-49.7,15.9-4.6,7.6-8.4,4.7-21.4-9.2-1.6-2.2,11.1-5,13.9-2.4,2.5-45.9-9.2-42.9,26.3.8,8.8,11.7,12.1,9.8,21.7h-19v-181h200.1c-1.1,5.6-3.1,13.8-6.7,23.5-6.8,18.4-10.8,29.4-21.1,36.4-9.3,6.4-14.2,3-25,11.4-8.2,6.3-12.3,13.6-13.3,15.3-11.4,20.8-2.4,42.5-2,43.4,2.7,6.2,7.3,16.9,18.2,20.6h-.1ZM2491.1,1098.5v19h-9.5v-19h9.5ZM2362.5,1274.7h-52.4c5.2-27.5-7-83.8,0-107.1,1-3.4,17.7-15.3,16.6-26.2,19.2,15.1-6,16.6-7.3,21.4-3.7,14,9.9,11.2,9.9,14.3-.2,8.2-13.2,15-9.7,26.1,4.1,4,50.8-19.1,62-7.1,0,4.1-55.5,14.3-57.2,16.7-10.6,15.5,51.9,35.1,38.1,61.8h0ZM1676.6,1189c28.1-24.9-9.1-48.4,38.1-19-6.1-22.7,31.9-11.8,47.6-28.6,1.6,2-3.1,15.8-4.7,19.1,10.1-7.7,20.1-20.3,33.2-21.5-31.8,39.7-.6,21.2,4.9,26.3-4,43-24.4,21.5-54.8,23.8-4.2,0-2.5-6.2-2.4-9.6-.8.7-18.4,0-9.4,14.1,1.6,2.5,42.1,6.1,47.8,17.3-6.9,20.1-13.8,40.3-20.7,60.4-32.5.8-66.1,1.1-100.6.8-28.6-.3-56.5-1-83.7-2.1-4.5-15.2,37.6-29.2,44.6-27.7,6.6,1.4,9.9,13.4,18.8,12.7,4-.3,69.9-29.5,72.6-32.3,8.6-8.8,10.3-26.5,11.6-38.4l-42.8,4.7h0ZM1783.7,1217.5c5.2-4.4,13.1-12.1,19-24.1,2.1-4.4,5.6-12.4,6.5-22.5,1.5-16.2-9.5-20-8.1-30.7,2.2-16.3,48.8-122.5,59.1-146.3,3.8-8.9,24-59.5,26.8-61.3,5.6-3.4,20.2.4,27.9-.8-6.2,31.2,5.2,82.6,44.8,81,20.8-.8,24.8-23.7,36.2-35.8,5-5.3,33.2-34.7,35.4-36.1,10.7-6.9,32.5-5.7,45.6-9.1l-57.8,335.1c-.4,1.9-.9,3.7-1.3,5.6-40.5.8-81.8,1.1-124,.9-42.4-.2-84-.9-124.7-2.1,4.9-17.9,9.8-35.9,14.7-53.8h-.1ZM1738.6,1017.5c-10.9-10.2,18.4-16.9,14.4-30.6-1.1-3.9-36.6-37.1-47.8-26.5-6.2-14.4,28.7-11.1,34.8-9.6,3.2.8,8,13,15.9,18.5,56.4,39.4,59.7-57.6,120.8-42.2l-62,157.1c-40.1-9-26.8-59.6-23.8-90.5-15.3-8.2-42.6,32.9-52.4,23.8h0ZM1686.2,927.1h23.8c5.7,4.9-18.1,29.9-28.5,23.8-1.9-16.7,17.4-3.2,4.7-23.8ZM1785.3,856.6c-5.7-8.2-57.1,4.3-70.5-8.1l21.5-16.7c9,23.7,10,4.1,15.3,0,18.1-14,51.1-24.2,29.9,4.7,30.5-9.8,22.6-1,37,9.6,5,3.7,23.5,13.7,24.3,14.9,5.3,9.2-9.5,18.7-8.5,24.9,1.3,7.6,21.4,13.8,18.8,29-.7,3.9-17.3,8.1-21.1,7.7-1.4-.2-5-18.9-22.2-7.7-10.1,6.6,14.1,51.4-28.3,36-4.2,3.7,13.8,19.9-2.4,19.1-4.5-.2,0-7.9-5.9-9.6-4.4-1.2-12.1,1.5-14.9-.6-1.6-1.2-5.6-31.8-14.9-37.5,11.8-1.6,44.7-15,50.3-23.9,1.6-2.5-7.2-40.1-8.4-41.8h0ZM1712.6,865.1l-21.7,9.6c-7.7-21.1.7-43,23.7-47.6-6,18.3-14.3,18.6-2.1,38.1h0ZM1714.5,803c-1,1.1-21.6,1.3-30,5.9-5.3,3-6.1,9.2-9.6,11.9-3.3,2.5-10.8.6-11.9,1.8-3.3,3.8,2,16.9-1.4,22.7-1.6,2.7-56.9,32.5-32.9-6.8,10.8-17.7,43.1-14.7,38.4-35.4-33.4,8-60.9,29.3-66.6-19,23.8-8.5,22.2,18.2,26.6,19.4,10.9,3.1,63.4-7.6,73.7-16.8,20.9-18.8,18-15.9,26.8-18.2,0,0,8.1-2.4,15.8-5.9,12.9-5.8,26.9-24.9,41.5-36.7,9.5-7.7,14.9-8.7,35.2-17.6,17.4-7.7,41.9-19.4,71.2-36.8,22.1,1,44.3,2.1,66.4,3.1-17.3,21.9-34.3,30.6-47.3,34.4-18.8,5.5-37.2,2.9-42.6,13.8-4.2,8.3,4.7,17-.8,23-1.3,1.4-32.1,4.2-37.9,4.9l33.3-23.7c-17.2-.7-35.3,4.6-45.1,19.2-11.1,16.6-3.1,35-35.8,23.6-3.8-19.4,15.8-1.5,19-4.7,7.8-7.9-24.6-27.3-33.3-19.1v33.4c-10-5.2-39.8-8.5-47.9-2.7-8.2,5.9-2.3,23.6-4.7,26.3h0ZM1620.2,828.9c2-1.8,4.9-3.2,8.7-4.3-3.2,1.9-6.1,3.3-8.7,4.3ZM1614,854.9c-8.2,10-70,9.8-85,10.2-5-18.4,23.4-5.4,28.6-9.6-6.6-12.6-7.3-21.7,4.7-30.9l-31,2.4c8.7-6.6,52.1-28.6,59.2-23.5,6.9,5,4.5,35.2,29.7,25.4-9.4,8.1-2.6,21.5-6.2,26h0ZM1514.7,841.3c-2.4,2.7-59.9.3-71.4,9.5,5.7-9,19.4-14.7,27.4-22.7s6.6-7.9,9.1-12.6c.4-.8.9-1.7,1.6-2.8-11.5-1.8-53.4,41.7-57.1,38.1-6.1-5.9,7.7-12.6,11.1-15.1,17.6-12.8,36-24.1,53.3-37.2,3,4-4.7,10.1-7.2,14.2,4.6-2.4,9.1-4.8,13.6-7.3,59-32.1,117.4-68.4,178.5-99.2,11.5-5.8,23.1-11.4,34.8-16.7,26.9-12.2,58.1-27.2,86.9-33,1.8-.4,3.5-.7,5.2-1,2.6,12.7-3.2,8.2-9.4,11.8-74.1,43.3-143.4,78.2-217.8,125.4-9.3,5.9-56.2,27.6-57.9,30.3-3,4.8.8,16.6-.7,18.3ZM2689.9,659.2c-40-16.4-79.9-32.7-119.9-49.1l-16.9-6.9c39.1,2.4,75.2,18.4,111.9,31.8h0c13.3,4.8,26.7,9.3,40.3,12.7s9.6,2.2,14.5,3.1c.2.5.5,1.1.3,1.9-.5,2.5-5.5,3.5-10.6,4.3-4.8.7-11.4,1.6-19.6,2.2ZM2462.8,810.1c14.2,35.1,23.9,72.2,37.8,107.4-65.2-.7-129.8,8.2-195.3,4.8l-4.7-238.2h97.7c8.1,2.3,40.5,69.4,46.3,82.3,5.5,12.1,13.2,30.9,18.3,43.6h-.1ZM2462.6,791.3c17.3-9,37.6-13,57.1-11.9,3.9,17.1-13.3,5.5-18.4,10.2-9.5,8.6.3,36.2-38.7,1.7h0ZM2343.5,593.6c2,6.7,4,13.3,6,20,15.4,20.7,30.8,41.5,46.1,62.2-31.7-.4-63.4-.8-95-1.2l-4.4-97.9-.3-6.8c2.3-2.7,9.3,1.8,16.4,7.3,3.5,2.7,5,3.7,7.3,5.4,0,0,5.2,4,10,8.5,12.2,11.1,24.6,30.9,43.4,46.9,3.4,2.9,9.1,7.5,17,12.3-18.7-24.1-37.4-48.1-56.1-72.2l-2.2-3.5c12.2,1.3,29.9,4.2,49.9,12,12.2,4.8,26.5,11.8,67.1,41.7,15.2,11.2,34.9,26.2,57.4,44.7-16.8.6-33.7,1.1-50.6,1.7-14.3.4-28.5.8-42.7,1.2-14.6-17.5-29.2-35-44.1-52.6-8.4-9.9-16.7-19.7-25-29.5l-.2-.2ZM2107.7,917.5c-1.3,0-5.1,4.4-9.4,4.9-6.9-22.7,37.9-17.6,55-21.2,9.1-1.9,39.1-15.4,45.1-21.5,16.4-16.5,5.9-36.3,7.1-38,1.1-1.5,21-4.8,30.4-19.8,12.2-19.6,6.2-46.4,9.7-52,4.5-7.4,34.1-13.5,36-21.4,4-16.7-38.9-10.3-51.3-15.1-5.3-2-5.9-9-9.4-10.9-16.6-8.9-29.6-11.8-48.8-9.7-2-1.8,8-28.5,9.5-28.5,35.4-.6,70.7-1.2,106.1-1.8,2.5,38,4.2,78,4.8,119.7.6,41.1,0,80.4-1.4,118-4.5.2-9.1.4-13.6.6-56.6-1-113.1-2-169.7-3v-.3ZM2242.1,961.4c-23.5,14.5-58.2,25.5-51.1-15.3,10.1,5,55-6.6,57.2-4.8,8.1,6.7,1.6,15.3-6.1,20.1h0ZM1849.4,850.6c-4.5-4-17.6-7.4-19.3-10.3-3.5-6.2,2.1-20.4-5.4-25.5-11.8-8.1-75.2,4.4-86-6.9-14.4-15.1,26.7-4.5,30.7-4.5,16.2.3,35.9,1.3,51.5-1.4,16.2-2.7,73.2-37.7,79.7-32.2-16.2,29.8,20.9,25,40.4,28.7,6,1.1,8.6-3.5,7.2,6.9-18.6,16.1-55,105.8-69.6,111.5-17.1,6.6-8.1-11.2-15.7-21.4-4-5.4-14.2-6.1-14.7-6.7-3.8-5.2,20.5-21,1.2-38.2h0ZM1839.3,761.3c2.8-2.8,65.2-23,75.3-20.1l-28.3-9.5c0-4.3,4.3-7.4,8.2-8.5,12.7-3.4,101.6-10.6,106.1-5.7,7.7,8.2-1.8,8-7,9.6-50.3,15.1-92.8,29.1-141.8,47.9-3.4,1.3-3.5,8.2-7,9-9.4,2.2-23.2,1.4-29.9-7,33.2.5,19.7-10.8,24.5-15.7h0ZM1638.5,765.1c30.9-18.4,63.3-36.9,97.2-55.2,31.8-17.2,63-33.3,93.4-48.3,14,1.3,28.1,2.6,42.1,3.8-32.9,17.4-65.9,34.7-98.8,52.1-13.8,23.7-27.4,30.9-37.5,32.9-11.8,2.4-22.1-1.7-32.9,5.4-7.8,5-11.6,13-13.6,18.8l-2.4-14.2-47.6,4.7h.1ZM1633.8,786.5l28.5-7c3.2,15-22.3,18.4-28.5,7ZM1810,648.4c-1.7-4.2,76.4-28.4,85.7-26.1-.2,1.2-.5,2.2-1,3.1-2.7,5.3-9.5,5.4-14.4,7.6-13.2,5.9-39.2,16.5-52.5,19.3-6,1.2-12.4,4.8-16.5-1.4-.5-.7-.9-1.6-1.3-2.5h0ZM2249.1,576.4l-47.6,58.6c-8.7,11.9-17.4,23.8-26,35.8l-89.2-.9c22.3-20.6,47.4-39.1,74.2-54.8,30.5-17.9,51.8-37.7,84.4-38.6h4.2ZM2067.4,681.6c33.3.8,66.6,1.7,99.9,2.5,1.1,10.7-1.8,16-4.3,18.9-10.1,11.2-27.6,1.5-59.7,5.2-10,1.2-18.7,7.9-33.4,9.5-4.6.5-29.1,3-31.5-4.1-.4-1.2,0-2.4.3-3.3,4.4-11.4,24.5-25.8,28.7-28.8h0ZM2000.8,666.9c9-5.3,21.9-12.8,37.5-21.4,25.2-14,45.3-25.2,63.8-33.7,20.3-9.3,49.8-20.5,89-27.7-10.8,6.8-23.7,15.2-38.2,25-21.5,14.4-37.3,25.6-41.7,28.7-12.2,8.7-26.6,19.1-42.4,31.1-22.6-.7-45.2-1.3-67.9-2h-.1ZM2198.2,584.1v-4.8c3.1,1.6,3.1,3.2,0,4.8ZM1852.9,655.5l36.9-17.8c47.3-14.4,94.4-35.6,144.1-39.2l-141.6,60.8-39.4-3.8ZM1957.8,639c50.6-18.6,103.1-40.3,157-45.3l-132.1,70.2-67.9-3.6,43-21.2h0ZM2052.9,679.4c-29.1,46.1-34.1,24.5-69.3,23.6-14.4-.3-29.6,8-45,4.9,3.8-5.4,33.4-28.5,35.7-28.5h78.6ZM1767.2,791.3c14.6-12.6,30.9-2.5,47.6-2.3,14.7,11.9-44,14.6-47.6,2.3ZM1957.6,812.8l-19,61.9,17.3,4.3c-16.7-3.6-23.7,11.9-33.6,24.9-6.6,8.6,1.3,21.7-26.5,11.3l61.8-102.4h0ZM1937.3,903c17.1-17.3,42.1-10.2,39.9-54.8-.4-8.9-9.7-6.4-10.3-10-1.2-7.9,4.3-15.8,4.2-23.2-.5-33.6-32.7-31.6-58.7-30.8-9.9-1.1,12.3-22.2,14.9-23,8.4-2.7,20.3-.2,30.8-2.9,8.9-2.3,43.2-28.1,64.1-31.1,20.4-2.9,42.8,6.3,61.7,5,8.8-.6,6.3-8.6,10.6-9.6,28.1-6.6,75.9-8.8,103.1,0,5.3,1.7,11.5,1.5,12.4,9l-14.2,4.8c10.4-1.3,20,11.9,26.8,13,8.6,1.4,34.8-11.7,39.8,1.3-18.2-2.3-63,31.8-28.6,38.2,2,7.9-8.4,2-9.7,7.7-1.6,7.4,2.8,19-.6,24.8-3.4,5.8-38.1,13.1-46.8,10.3-2.5,16.2,15,23.6,19,38-6.2,5.6-31.5-34.7-38.1,4.8l23.8,4.7c-23.1,15.6-56.7,9.2-77.6,15.3-7.9,2.3-18.8,18.9-33.2,24-14.7,5.2-33.2,2.6-46.1,11-2.5,1.6-37.3,36.8-41.6,41.7-6.9,7.6-9.8,25.4-22.9,31.7-4.3-10.5-23.3-12.6-26.6-17.2-8.3-11.5-7.4-71.5,3.9-82.9h0ZM2483.2,642.1c-27.9-19.7-55.8-39.4-83.6-59.3,56.1,20.2,113.9,44.8,172.6,75,8,4.1,16,8.3,23.8,12.5-23.6.4-47.1.8-70.7,1.3-14.1-9.8-28.1-19.7-42.2-29.6h0ZM2450.2,589.1c29.8,4.3,53.9,10.3,71.1,15.4,16.7,4.9,29.9,9.7,44.9,15.2,23.9,8.7,43.4,16.8,57.4,22.9,17.2,6.3,34.3,12.7,51.5,19-4.7,1.3-9.6,2.5-14.8,3.5-16,3.3-30.9,4.7-44.1,5-55.3-27-110.7-54-166-81h0ZM2276.6,571.9c4.8-1.2,8.9,2.6,9.6,4.6v.5l.2,92.3c-31.1,1.3-62.3,2.6-93.4,3.8,38.9-52.4,68.2-90.2,74.8-96.7,1.2-1.1,4.5-3.4,8.8-4.4h0ZM2068.6,1026.1c4.7-23.1,11.3-66.6,18.6-86.2,1.4-3.7,2.6-6.5,6.9-7.4,50.1-.3,100.3-.5,150.4-.8.9,0,2.1,0,2.2.2.3,1-8.9,4.5-10.2,4.7-24.4,3.2-72.5-15.4-68.3,20.2,6.4,54.4,97.6,19.2,93.8-7.2-.7-5.1-10.2-16.8-8.9-17.7h38.1c-8.9,53.9,14.7,127.8,4.8,178.6-2.4,12.6-14.1,10.6-18.1,20-1.6,3.6-6.8,33.4-6.1,36.5,1.5,7.4,24.2,6.5,24.2,7.8v100h-266.7c12.4-82.8,22.7-166.6,39.5-248.7h-.2ZM2286.3,1160.4c6-6.9-.9-27.3,0-28.3,3.6-3.7,41.4-16,32.4,3.8-.2.4-5.6.4-8.2,4.5-6.4,10-4.2,23.3-24.3,20h.1ZM2310.2,1293.8c-16.6-12.6,44.6-10,47.6-9.5,16.6,12.6-44.6,10-47.6,9.5ZM2343.6,1184.1c-.6-.6,1-7.7-1.7-12.5-1.3-2.2-7.3-1.5-7.6-2-3.6-5.5,23.1-23,23.9-30.6,1.5-15.2-24.7-26.5-24.1-48,.3-11,8.9-13.3,18-10.3,7,2.4,15.4,33.3,20.9,43,5.5,9.6,12.2,19.1,18.3,28.4,2.1,3.3,9.6,3.3,9.6,6.2.3,24.3-54.9,28.2-57.3,25.7h0ZM2476.9,812.7l26,14.4,7.4-19.2c12.4,16.6,41,8.5,28.5-4.8-1.7-1.8-12.5,3.1-14.3-2.5-2.4-7.4,14.4-10.9,14.5-17,0-5-8.3-8.2-11.7-9.5-21.5-8.4-48.6-1.1-63.8,4.2-7.5-15.5-15.1-31.3-22.6-47.4-7.3-15.8-14.4-31.4-21.2-46.9,16.5,0,33.6,0,51.3-.7,15.8-.6,31-1.4,45.8-2.5,10.2,10.7,24.9,26.8,41.7,47.3,26.9,32.8,44.1,58.7,52.4,71,19.7,29.1,50,70.3,95.1,122.4-23.5.3-40.2-4.8-51.4-9.9-10.5-4.7-19.8-11.1-37.2-15.6-6.9-2-14.8-3.5-23.5-3.8-38.1-1.5-66.5,19.6-77.3,28.6-13.2-36.1-26.5-72.1-39.7-108.2h0ZM2534,679.4h73.8c6.6,0,94.3,68.5,107,79,4.5,3.7,4.3,10.9,5,11.5,4.5,3.9,19.2,8.1,28.6,16.6,7.7,7,37.9,35,38.1,42.9,0,4.2-34.2,5.7-36.8,29.2-.5,4.3,4.1,37.2,5.7,40,5.2,9,27.6,8.5,31,18.9l-65.3,1.4-187.1-239.5h0ZM2767.4,898.5c-5.1-39.1-13.8-55,33.3-61.9-12.4,14.9-28,17-28.8,40.3-.3,10.2,13.2,24.7-4.5,21.6h0ZM2796,931.9l-16.7,19-16.6-14.3,33.3-4.6h0ZM2787.3,890.5c-7-22.1,12.3-50.6,27.7-42.4,3.9,2.1,57.7,64.6,52.3,69.4-11.9-5.6-49.7,2.6-56.1-1.1-1.5-.9-23.4-24.3-23.9-26h0ZM2872.4,768.2c-13-9.9-30.6-23.2-68.2-47.2-30.9-19.7-57.6-34.5-74.9-44.1-7.5-4.1-13.8-7.5-18.3-9.9l27.3-6.8c10,4.4,23.9,10.6,40.2,18.2,0,0,29.9,13.7,55.8,27.1,88.1,45.8,178.3,108.3,252.4,173.9-8.7-2.6-31.3-2.5-37-5.9-5.6-3.3-7.5-18-28.3-26.4-20.4-8.2-52.7-11.4-57.4-11.8-25.6-2.3-26.1-17.3-91.5-67.1h-.1ZM1098.2,1180.8c92-147.7,128.8-165,141.5-177.6,5.1-5,8.2-11.2,16.8-9.4-.6,1.9-1.3,3.8-2.1,5.6,0,0-1.1,2.7-2.5,5.4-2,4-27.9,40.9-64.3,90.7-12.7,17.4-24.1,32.2-45.6,62.8-15.2,21.7-27.2,39.7-35,51.7,3.8,1.9,7.6,3.8,11.5,5.7,1.1-1.9,2.7-4.5,4.6-7.7,22.9-38.5,34.4-57.8,35.8-57.1.6.3-.7,5-9.1,23.8,3.3.8,6.6,1.5,10,2.3l13.8-26.8c5.5-8.9,11.1-17.7,16.8-26.7,8.7-13.7,17.4-27.3,26.1-40.8,18.9-33.1,37.8-66.3,56.7-99.4.7-5.4,1.4-10.8,2.1-16.2l127.3-106.2c6.2-2.2,8.8-.7,10.2,1.6,1.6,2.8,1.6,6.7,4,7.3,19.5,4.5,72-27.3,85.1-9.7,5.3,7.1,2.7,41.1,20.5,27.4.5-.4,1.8-13.8,5.5-8.3.9,1.4-1.8,9.3,2.5,9.8,10.1,1.2,15.8-9.7,27.8-9.6,17.7,0,48.8,13.5,57.8,13.9,12.7.6,57.4-35.8,59.6-33.1l-4.7,38.1c16.8,4.4,51.5-39.9,47.6-4.7,11.3-4.1,17.5-3.7,19.1-19-5,.3-16.4,2-19-2.4,5.1-7.3,10.2-8.3,19-7.1,0,3.1.3,6.4,0,9.5,5.9-.4,12.4-5.7,19-4.8-1.7,15.1-13.8,14-14.3,33.3,5.6-2.1,31.2-11.2,33.3-9.5,9.9,8.1-23.2,17.5-27,18.3-9.1,2.1-6.5-1.7-6.3-8.8-12.7,4.7-25.9,16.6-42.8,14.3-.9-19.8,16.7-2.8,19-23.8-23.7,8.7-87.3,21.3-104.7,31.3-3.5,2-4.4,9.5-8.4,11.7-23.1,12.7-75.2,36.2-84.8,62-3.6,9.8,3.2,5-5.3,20.1-11.1,19.9,11.7,9.1,22.1,15.4,4.2,2.6,5.8,10.8,9.5,14.5,4.4,4.3,14.2,6.6,14.7,9.7.8,4.9-29.5,54.7-7,59.5,26,5.5,32-33.3,44.5-45.8s33.7-14.6,45.1-26.4c16.2-16.6,10.8-40.7,12.3-42.5-2.5,2.4-11.6,2.7-13.3,5.6-7.9,13.9,5.3,36.1-29.5,42.1l49.6-81.3c36.4-15.5,6.5,20.8-6.8,33.7.6-.8,11.1.2,19.4-6.7,8.5-7,13.4-25,14.7-25.8,15.8-9.8,39.6,1,41.1,21.5.7,9.9-15,20.9-2.6,33.8,14.1,14.6,41.3-19,46.4-13.2,4.7,15.7-6.8,36.7-4.9,49.8,2,14.1,28.8,35.2,28,46.7-1.4,19.3-15.5,10.5-27.9,15.2-41.7,16.2-33,10.8-73.4,12.4-14.8.6-82.4,35.1-91,47.2-18,25.3,32.1-7.8,34.3-8.2,23.5-4.5,11.8,26.4,22.8,37.1,8.1,7.9,21.1-.2,21.6,9.3-16.1,4-33.8,5.6-45.3,19.1l12-23.7c-4.6-4.3-75,22.8-83.7,33-5.7,6.6-6.5,17.4-11.7,21.7-6.4,5.4-20,4.2-28.2,9.9-2.1,1.5-33.1,32.7-35.7,35.8-14.8,17.7-9.8,43-24.4,61.4-14.2,18-70.9,44.9-73.7,69.2-.7,5.7.8,10.4,7.1,7.1,2.4-1.2,27.2-33.1,35.6-40.6,21.5-19,40.4-18.7,52.8-52,5.4-14.4,1.2-34.1,18.7-40.8-6.6,43.8-32.1,83.9-41.9,127.2-1.6,7.1-3.9,12.8,6.2,10.9,13.6-7,31.7-116.9,61.9-142.9,6.8-5.8,23.1-10.3,26.2-16.6,10.4-20.9-32.9,10-35.7,11.9-4.3,2.9-10.3,11.5-11.8,0,14.6.8,16.4-17.4,24.9-20.8,2.8-1.1,37.4-7.9,39.4-7.9h173.9l-38.1,219.1h-157.2c-4.1,7,6.8,14.3,11.9,14.3h145.3l-19.2,168.9c-1.5,7,1.9,50.3,7.3,50.3l21.4-219.1h81v-14.3c-26.4.3-52.8.6-79.2.9.5-2.8,1.2-7.3,2.1-12.8,6.4-38.9,10.6-67.6,11.3-72.6,3.1-20.8,10.2-58.9,27.7-134.7h524c1.4,0,8.8,23.8,8.9,25.9.8,22.8-4.9,54.9-4.4,81.4.4,19.2,7.9,37.5,5.2,57.2-2.3,17.1-16.3,18.6-14.5,35.4,14-3,22.4-13,37-17.7,27.5-8.8,90.1-24,119-28.7,12.3-2,79.6-8.7,84.9-1.6,9,12.2-6.7,22.5-7.7,31.6-2.7,24.5,42.8,29.9,58.5,40.1,15.5,10,32.5,34.5,55.8,40.8,48.2,13,12.9-30.1,34.1-44.9,1.3-.9,30.4,4.5,31.8,5.2,1.9,1.1,4.7,11.8,13.4,17.5,27.7,17.9,74.4,29.4,106.6,19.6,2.3,17,5.3,41.9,11.9,57.2,6.2,14.3,20.5,23.7,28.1,38.6,16.2,31.4,23.1,71.3,50.5,97.2,5.6,5.3,5.9.5,4.9-4.8-3.5-17.2-24-41.8-32.2-58.3-5.9-12-6.1-26.4-12.8-39.6-1.7-3.4-35.1-41.8-14.6-33,27,11.6,24.1,44.5,34.8,65.2,6.9,13.3,19.8,35.1,27.5,48.7,4.9,8.6,27.2,45.1,33,48,7.6,3.9,8.3-2.8,5.1-9.9-5.1-11.4-16.8-22.6-22.7-34.4-5.9-11.7-6.2-27.9-11.2-36.4-4.6-7.8-15.2-8.8-20.4-17.8-6.7-11.6-.2-21.9-3.3-29.7-9.2-23-72.3-71.3-68-91.9.2-1.1,7.4-20.5,8.5-22.6-5.8,10.2-47.1,20-59,18.8-14.3-1.4-59.4-20.8-69.5-33.2,34.8,2.2,72.9-3.1,107.2,0,8,.7,27.4,3.1,21.4,14.3.3-.4,8.2,2,9.6-3.2,5.4-20.4-6.1-56.5,3.6-79.6-15.9-29.7-29.5,7.9-51.2-2.9-9.5,9.4,17.7,14.6,21.7,14.7,8.4.2,8.6-19.3,16.4-10,10.4,12.5-17.1,24.7-28.5,19.1-1.2,17.2,17.3,14.8,28.6,14.3l-8,24-218.5-4.8c-29-3.5-56.5-7.3-83.1-19.3,22.8-18.6,13.6-46.6-12-57.1l-207.1,33.4v-28.6c14,6.3,47.3,6.7,57.1-4.9,16.9-19.9-24.7,0-26.3,0-9.2.9-20.4-8.2-30.7,0-11.2-37,5.4-75.8,0-114.3,31.1,11.7,61.7,4.6,65.8-32.3,3-27.3-15.1-30.2-29.4-43.5-4.1-3.8-4.3-3.4-3-9.9,35.6,3.8,65.6-18,90.7-40.3,7.4-6.6,11.7-20.2,18.9-23.9,8.9-4.6,25.3-1.7,32.2-8.3,6.2-5.9,2.6-26.5,15.4-15,27.5,24.6,53.6,7,84,3.3,26.7-3.3,39.1,19,35.2-34.8l23.8,4.7-9.5-28.5c13.3,1.8,57-7,42.4-28.1-11.5-16.7-55.3,19.5-75.8-7.6-28.2-37.2,41-47.9,12.3-69.5-29.8-22.4-33.7,9.3-43.6,23.8-10.3,15-25.6,16-20.2,39.8,2.1,9.4,13.6,17.1,13.5,24.9,0,5.9-6.9,10.4-8.2,15.6-5.2,20.5,1.5,26.1-22.8,39.1-8-21.4-25.9-37.7-38.2-57.1-7.9-1.9-28.6,30.1-38.1,14.4-6.2-10.3-15.7-34.3-4.8-52.6,10.7-17.9,27.7-8.8,44.5-30.2,5.6-7.1,9.2-15.5,16.5-32.2,4.4-10.1,7.6-18.8,9.7-25,27.9-24.8,52.5-27.5,62.8-27.7,19.9-.5,38.8,6.6,51.6,11.4,18.9,7.1,26.8,13.6,46.5,17.9,12.9,2.8,23.9,3.2,31,3.1,7,10.1,14,20.3,21,30.4l-62-7.1c12.2,14.7,31.7,42.7,50.7,45.3,18.3,2.4,36.6-35.9,40.6-37.1,3.1-1,9.8,4.8,15.2,3.3,5.2-1.4,11.8-19,28.2-24.5,6.1-2,69.8-16.6,73.5-16.5,19.3.5,38.8,32.4,46.6,8.1,17.2,6.1,4.9,42.5,28.2,37.9,14.6-2.9.7-25.4,2.8-28.4l19,2.4c-19.9-22.6-52-12.6-66.6-45.3h28.6l-14.3-19h19c-21.3-24.1,1.2-25.6,23.8-23.9l-4.7-19c11.1-.8,18.5,9,28.5,12,11.8,3.6,23.8.9,35.4,7.5,12.9,7.4,14.7,30.8,24.9,32.5,4.7.8,9.4-7.1,16.4-7,3.6,0,39.1,7.1,43.7,8.5,18.2,5.7,58.1,50.2,51.2,8.4,0,0,.2-.2.4-.2,4.7-2,36.1,13.3,42.2,17.2,7.7,5,15.5,10.6,23.5,16.7,42.3,32.9,87.5,82,131.1,137.5,83.3,106.1,160.4,235.7,199.1,320.9,49,108.2,105.3,273.6,113.2,391.8.4,6.6-2.5,7.2-5.9,7-3.5-.2-7.4-1.4-8.5,2.4-2.2,7.7,0,40.7,1.6,50.9.6,4.1,9.6,40.8,18.4,43.4,1.4.4,2.8,0,4.2-1.7,1.3-1.6-3.1-12.2-6.4-22.1-1.7-5.2-3.1-10.2-3.2-13.5,0-1.5.2-4.7.8-8.6,1.2-9,4-21.3,8.8-22.4,4.1,45.1,2.6,88,4.8,133.3-1.6-1.1-3.3-2.5-5.1-4.3-24.2-25.3-56.5-115.9-65.8-40.3-10.5,85.7,27,107,45.7,172.2,9.2,32.1,4.9,68.2,10.8,101.1-16.4-9.9-7,7.7-2.1,22.2,1.6,4.9,2.8,9.5,2.2,12.6-.2.9-2,3-4.8,5.5-7.8,7.1-23.1,17.2-28.7,12.1-2.9-2.7-12.1-89.4-28.6-71.4-2.5,2.7,25.8,55.4,14.3,71.4h-33.4l9.6-166.7c11.6-1.5,7.6,0,10,6.6,11.7,32.1,18.7,60.9,36.4,92,3.2,5.6,3.9,12.8,10.8,3.6-8.1-30.4-34.1-64.6-38.2-95.3-.9-6.9-.3-8.7,7-7,11.2,2.6,8.9,12.5,16.7,14.2,5.7-25.5-12.5-23.1-33.1-23.9l-19.2-176.1h4.7l9.5,28.5c-6.4-70.7-58.9-127.1-76.2-195.3-12.6,3.1-42.7,14.9-46.6,27.2-2.4,7.7,0,17.4-3.2,25.4-6.5,16.3-19,30.8-25.2,51-12.6,41.8-6.3,77.1-12,116.6-3.4,23.8-18.6,42.2-22.6,65.5-7-.7-7.5-7-9.3-12.1-11.8-33.5-11.2-80.2-28.5-114.4-13.2-26.2-17-8.6-12.4,12.4,3.2,14.6,31.8,116.4,35.8,121.4,22.2,27.3,23.2-35.7,43-35.8,9.1-51.3,5-87.5,17.9-136.9,2.1-8,1-16.9,1.1-25.1h88.1c8.1,0,18.1,42.8,20,51.4,13.9,62.4,15.8,132.7,25.2,196.2h-111.9c-11-7.7-5.2-22.1-9.4-33.5-2.3-6.3-19.6-47.2-21.1-49.4-3.2-4.6-5.4-2.9-10-2.8-5,28.3-20.3,54.4-14.3,85.7h-128.6v14.3h133.4l-18.6,192.2c-6.3,8.9-101.2,14.3-119.5,17.4-.7,11.1-1.6,8.4,7.1,9.5,19.1,2.4,108-8.7,112-4.8,1.8,1.8.5,13.6-4.6,16.9-8.9,5.7-14-2.6-16.8-2.6h-157.2c-7.1,0-7.1,14.3,0,14.3h173.9c-19.8,108.7-48.9,215.2-85.7,319.1h-209.6l38.2-159.5c-7-8.2-12.5,3.5-14.8,9.1-8,20-25.2,101.7-27.6,124.8-1.4,13.3-.4,26.6-.6,39.9h204.8c-36.2,93.4-79.3,186.7-140.5,266.7h-164.3c10.7-35.3,37.9-72.7,46.5-108.3,1.4-5.8,4.7-19.2-6-15.6-6.5,2.2-38.8,112.1-57.2,123.9h-192.9l35.7-114.4c-9.6-.6-10.6,8.8-13.3,15.3-13.3,32-19.8,70.5-39,99.1h-226.2c1.5-35.2,13.3-69,17.7-103.8.7-5.6,5.5-19.1-5.8-15.3-9.4,3.1-19.6,103.1-26.7,118.6l-242.5.5v-114.3h-14.3v114.3l-229-2.1-21.2-112.3c-11.8-2.4-7.5,14.9-7,21.4,2.1,30.2,12.5,62.4,14.2,93h-216.7c-7,0-17.1-59.4-17.1-69.1,0-17.4,12.1-27.9,9.9-45.2-4.1.5-11.8-1.3-13.8.4-1.3,1.1-13.4,29.9-13.8,31.5-2.9,12.9.4,27.1-2.1,40.8-2.1,11.4-11.1,22.5-12.4,30.9-3.3,21.4,17.5,23.2-18.7,33.2-19.8,5.5-55.7-2.5-41.7,25.1,3.7,7.2,20,11.5,21.5,16.7,4.6,16-18.4,6.3-19,7.1-7.7,11.4,16.6,24.3,18.6,31.9,2.6,10.4-11.2,16.3-8.7,26.7,3.1,12.6,30.4,16.6,35.6,27.1,2.5,5.1-3.4,22.3-1.6,34.5,2.1,14.1,12.7,27.8,18.1,41.7,3,.4,6.4-.5,9.5,0,1.3,9.9.4,10.9-9.5,9.4-.9-2.9.7-7.4,0-9.4-32.2-4.6-53.4-16.8-78.7-38-33.1-27.7-47.6-98.6-66.6-124-3.8-5-12.6-2.8-17-7.9-11.8-13.5-30.1-64.4-29.4-83.7l-48.9-98.8c-10.2-1.6-7.6,2.8-5.3,10.1,10,31.7,27.8,64.5,44.7,93.2.6,3.1-2.7,14.2-4.3,15.2-5.3,3.4-108,.7-125.7.9-71.4.5-132.3-1.9-157.1-.3-6,.4-11,.8-14.3,1.1-26.9-39.7-54.3-83.1-81.4-130-27.6-47.8-51.9-93.9-73.2-137.7,53,.6,106,1.2,159,1.8,66.4,126.2,114,216.8,133.9,255.4,4.4,8.6,16.5,32,21.5,30.3,3.2-1.1,2.5-12.1,1.5-19.9-46.6-89.2-93.2-178.4-139.8-267.6h171.5v-9.5h-173.9c-40.8-103.4-69.1-213.5-83.4-323.9h102.4c.7,0,10.1,4.8,10.8,5.9,12.3,33.1,24.2,86.3,46.7,112.8,18.1,21.2,50,29.4,65.9,53.2,18.6,27.8,21.7,76.6,31.4,109.1,16.9-7.1,5.2-33.5,2.4-47.7-21.3-106-62-75.4-99.6-133.7-16.9-26.2-35.7-87.5-50.8-119.7-3.4-7.3-14.5-24.1-18.5-32,1.4,3.3-1.2,18.1,0,23.6-17.1-1-90.5-2.8-97.9-14.1l-16.6-193.1c-.6-4,4.9-11.9,7.3-11.9h102.4c-9.8,33.7-22.7,66.1-18.8,102.2.9,8.5,9.5,16.8,8.4,23.2-2.2,12.6-21.9,18.4-10.8,45.9,5.5,13.6,25,22.5,26,24-4.2-8.5-18.6-31.4-19.1-36-1.5-14.9,12.8-22,14.4-33.4,2.1-14.9-9.7-28.7-9.2-46.5,1.6-56.5,49.7-95.5,31.5-151.8-1.6-5-1.1-14.4-8-13.3-3.1,21.6,12.1,76.2-21.5,76.2h-102.4l9.5-209.6c38.8-6.4,24.6,22.1,34.3,49,6.3,17.5,43,84.2,56.1,41.5-42.7,13.2-51.7-95.3-57.9-99.3-4.5-2.9-42.9-7.2-55-16.4-7.4-5.7-23.6-39.4-35-48.4-10.6-8.4-39.5-14.5-54.6-26.4-3.6-2.9-21.4-19.9-21.4-21.4v-78.6c-23.4.9-9.2,18.3-10,30.5-1.1,18.1-9.4,28-.7,49.3,4.1,10.1,51.8,55.5,61.8,57.4,9.7,1.9,25-11.3,25.1,10.5h-142.9c9.7-56.7,15.4-116.9,29.9-172.5,5.4-20.6,30.8-38.8-8.1-42l-38.4,214.5c-28.6-.4-57.2-.8-85.7-1.2,8-50.4,18.9-104.8,33.7-162.4,18.9-73.6,41-139.9,63.6-198.4,11.2,1.6,22.5,3.2,33.7,4.7,3.4,3-24.4,65-19,71.4,10.1,11.8,33.6-58.6,28.6-66.7h14.3l-14.3,47.6,28.6,4.8c-1.6-10.7-6.3-18.9-4.7-30.5,2.7-18.9,21.6-26.8,19-33.7-1.4-3.7-8.5-6.8-32.4-4.5,5.2-33.7,13.4-72.6,26.8-114.9,12-37.9,25.7-71.1,39.3-99.4,1.3-3,.5-6.3-1.6-7.9-2.7-2.2-7.6-1.5-9.9,2.3l-17.4,26.1c-1.1,1.3-2.2,2.7-3.4,4-13.8,21.6-27.7,44.8-41.4,69.3-22.6,40.6-41.6,79.8-57.7,116.6-7,.4-14,.7-21.1,1.1h-.2c12.5-26,30-61.8,52.1-103.7,24.7-46.9,46.8-89,80.2-142.6h-.5ZM1545.6,1026.9c-2.8-3.1-10.1-3.6-11.4-5.3-1-1.3,4.5-29.8,5.5-31.5.9-1.5,24.4-20.1,27.7-22.3,11.5-7.6,61.1-31,70.8-21,2.6,2.7-5.6,18.5,14.7,13.6v7l-90.5,135.8c-5.9-23.6,15.5-33.8,19-52.3-21.6,1.5-24.7-11.5-35.8-24h0ZM1648.1,936.5c.8-7.6,24.9-23.1,28.6-19,4.3,26.9-6.2,18.4-28.6,19ZM2586.4,1503.4h71.4c-15.3,22.1,1,45.2-35,27.8-10.9-5.2-28.4-18.3-36.5-27.8h.1ZM2838.9,1598.6v-14.3c6.9,1.6,10.9,7.7,9.5,14.3h-9.5ZM2568.4,1073.3c3-9.1,15.5-11.6,13.3-24.8-50.1-23.2-10.1-33.1.2-48.6,6-9,5-38.2,23.5-18.1-10.4,20.5-26.4,19.9-21.7,45.4,6.8,37.2,31.8,28.4,36.2,33.2,2.1,2.3-18.6,48-9.5,61.9-13.1-7.7-46.4,9.7-50.1,9.4-21.7-1.9,5.1-33.4,6.2-36.6,2.2-6.7-.1-15.1,2.1-21.8h-.2ZM3548.6,1798.7h-71.4c11.2-23.4,11.4-60.9,44.8-62.2l26.6,62.2h0ZM1205,2308.3c-29,.2-58.3.3-87.9.2-31.9-.1-63.5-.4-94.8-.9-2.6-10.9-5.2-21.8-7.8-32.7,57.4,8.4,122.2,8.9,178.6,19.1,3.1.6,8.2,1.6,10.7,5.6,1.9,3,1.6,6.6,1.2,8.7h0ZM1286.1,2641.7h-159.6c-49.4-101.8-83.1-212.7-102.4-323.9h181c9.4,56.1,21.7,116.3,38.2,179.8,13.3,51.3,27.8,99.4,42.8,144.1h0ZM1010.5,2255.2c-9.3-61.2-17.1-123-14.9-185.1l190.2,5,14.5,204.5-189.8-24.5h0ZM1006.7,2308.3h-89.8c-1.6-7.3-3.2-15-4.6-23-1.7-9.5-3-18.6-4-27.3,30.7,4.8,61.3,9.6,92,14.4,2.1,12,4.2,23.9,6.3,35.9h0ZM990.7,2060.6c2.9-83-.2-169.9,14-250.4,5.9-4.2,124.2-3.3,139.6-.7,28.3,4.7,16.8,33.4,51.2,32l-9.6,219.1h-195.3,0ZM981.2,2060.6h-95.3c0-38.5.5-71,1.1-95.7,1.5-59,3.7-83.3,4.5-92.7,2.5-26.6,5.7-48.5,8.2-63.7,30.3,0,60.6-.3,90.9-.4l-9.5,252.4h0ZM981,2075.1l19.3,176c-32.1.9-64-5.9-95.5-11.7-10.7-7.8-17.1-146.1-18.9-169.3,31.9-.1,63.8-1.5,95.1,5h0ZM905,2308.3c-11.2,1-22.4,2-33.6,2.9-4.4-20.8-8.7-41.5-13.1-62.3,11.9,1.4,23.8,2.9,35.7,4.3,2.3,9.4,4.4,19.1,6.4,29.2,1.7,8.8,3.3,17.4,4.6,25.8h0ZM876.3,2320.3l28-1.8c11,47.3,24.2,97.2,40.2,149.3,19,62.1,39.6,119.6,60.5,172.3-7.2-1-14.3-2.1-21.5-3.1-46.7-101.7-79.3-208.4-107.2-316.7ZM965.2,2485.3c-19-59.1-34-115.3-45.9-167.5h88.1l6.2,8.1c9.7,48.4,22.5,101.1,39.6,157,17.9,58.5,37.7,111.5,57.6,158.6-13.6-.7-27.7-1.3-42.1-1.5-16.1-.3-31.7-.3-46.7,0-19.5-47.2-38.7-98.8-56.7-154.7h0ZM1117,2651.2c20.7,43.4,44.2,89,70.8,136.1,27.1,48.1,54.6,92.6,81.5,133.4-12.4.3-24.9.5-37.4.6-12.9.2-25.7.3-38.4.3-26.6-35.5-53.9-75-80.9-118.5-33.1-53.3-60.7-104.5-83.8-152h88.2ZM1001.9,1424c4.8-10.8,10.2-22,16.2-33.5,4.6-8.9,9.3-17.3,13.9-25.3,2.9-4.7,7.1-11,12.6-18.1,5-6.4,5.7-6.5,6.1-6.3,2.6,1-3.7,20.1-8,42.3-3.5,18.2-4.7,33.5-5.1,44.1-6,0-12.5-.2-19.6-.9-5.8-.6-11.2-1.4-16.2-2.3h.1ZM876.9,1702.7c2.3-10.5,4.8-21,7.3-31.5,18.3-76.8,40.7-152.5,69.3-226.6,2-4.5,5.4-6.7,9.4-7.7,6.9-1.7,15.8.2,23.1-.2-15.1,43-29.9,86-43.5,129.3-18.9,60.4-29.2,97.7-36,131.7-4.8,23.9-8.7,49.2-8.7,49.2-3.1,19.8-5.2,37.2-6.8,51.7-10.1-1.1-20.7-1.3-31.7-.2-.6,0-1.3,0-1.9.2,6-32.2,12.4-64.1,19.5-95.9h0ZM857.3,1808.2h28.6c-4.9,42.5-8.5,88.6-10,137.7-1.2,40.4-.9,78.7.5,114.7h-28.6c-1.4.3-2.6.2-3.7-.2-14.5-4.7-8.3-59.1-6.8-71.1,6.7-60.4,13.4-120.8,20.1-181.2h0ZM857.3,2232c-4.9-48.7-9.8-97.3-14.6-146-.9-5.6-1.7-11.2-2.6-16.8,7.3.6,15.2.9,23.8.7,4.4-.1,8.6-.4,12.6-.7,4.7,55.8,9.5,111.7,14.2,167.5-11.1-1.6-22.3-3.2-33.4-4.8h0ZM1132.4,2883.4c-9.3-12.9-18.1-25.7-21.8-30.7-45.5-63.1-85-132.2-120-201.5,6.8,0,13.6.2,20.4.3,23.5,44.8,50.4,92,81.2,140.9,29.8,47.3,59.7,90.7,88.9,130.2-5.3,1-10.7,2-16,3-.8-2-2.3-4.7-5.8-7.4,0,0,0-.1-.2-.1-3.8-2.9-15.6-19-26.9-34.7h.2ZM1343.1,3110.9c-62.7-52.4-119-113.9-171.4-176.3.2-.1.4-.2.6-.3.3-.1,8.9-2.8,12.4-2.7,5.6,0,18.4,7.1,27.1,22.7-.8-2.7-2-5.7-3.7-8.9-4.2-7.7-9.7-12.7-13.5-15.6l79.5-.3c25.6,30.7,52.6,61.9,80.9,93.4,32.9,36.7,65.6,71.6,97.7,104.7l-61.8-2.4c-34.2-30.8-69.4-64-105-99.8-32.3-32.4-62.4-64.3-90.6-95.6-3.3.4-6.5.8-9.8,1.2,27.4,31.5,56.9,63.8,88.5,96.7,35.4,36.7,70.3,70.6,104.2,101.9-3,.1-7.7,0-13.1-1.8-12.7-4-19.3-14.5-22-16.8h0ZM1555.1,3260.9c-7.9,2-13,.8-16.2-.7-5.5-2.6-4.9-5.8-13.8-12-4.1-2.8-6.3-3.7-9.8-7.2s-4.6-5.5-5.8-7.4c-7.6-4-13.6-7.4-17.4-9.5-61.4-35-85.8-60.3-96.6-70.4-.9-.8-3.5-3.8-7.4-7.4-1.9-1.8-3.6-3.2-4.7-4.1,13.2-1.2,27.1-2.1,41.6-2.6,14.9-.5,29.1-.6,42.6-.3,20,18.2,41.2,36.5,63.8,54.6,91.2,73.1,182.6,126.1,265.3,165-28.6.6-42.9.9-42.9,1h5.1l-63.8-17.4c-64.5-31.3-99.3-53.9-112.3-62.6-11.6-7.7-21.1-14.4-27.7-19.2v.2ZM2693.2,773.5c-2.5-.4-17-35.5-25.8,10.7h52.5c-.6-3.8.9-13.3,0-14.3-3.7-3.8-22.6,4.2-26.6,3.6h0Z"/>
    <path class="st1" d="M1748.1,1170c-3.5,3.5-4.9,5.7-9.5,9.5.6-14.8,7.9-7.9,9.5-9.5Z"/>
    <path class="st1" d="M1757.6,1160.4c-3.4,7-6.4,6.4-9.5,9.5.7-.7-1.5-6.5.7-8.8,2.3-2.3,7.8,0,8.8-.7Z"/>
    <path class="st1" d="M2615,1374.8c2.2-6.4,9-16.9,8.7-20.7-1.5-20.6-61.6-51.7-75.3-69.8-2.6,38.9,41.7,41.3,57.1,71.4-11.6-5.1-15.6,9.5-17.4,9.8-28.2,4.3-65.6-51.9-82.8-59.8-13.9-6.4-36.1,6.7-51.1,10.8-5.6,1.5-19.3.4-20.1,1.2-1.4,1.5,2,16.3-2.3,23.9-6.4,11.2-41.1,4.8-44.1,31.4-1.7,16,13.1,18.5-15.5,30.4,1.4-20.2-.6-42.8,17.2-56.5,8-6.2,29.9-9.8,33-14.6,2.4-3.7-7.3-15.8,4.1-24.6,11.3-8.7,52.8-3.4,68.3-17.8,22.2-2.8,36,26.2,49.1,39.4,7.1.6,40.5,28.5,42.6,26.4,8.2-8-42.9-33.8-46.6-46.2-4.4-14.6-3.8-37.3,15.6-35,9.7,1.1,19,21,28.6,28.9,11,9,21.6,11.2,33.4,23.7,20.2,21.5,27.2,54.5,47.6,76.3l2.3-19c1.1-.9,18.5,3.9,19,4.7-9.4-38.8,12.3-48.1,47.6-42.9,1.1-10.4-8.7-15.9-9.4-26.4-.9-14.4,11.6-41.4,14.2-18.9,1.3,11-4.1,36.9,12.6,39.9,8.9,1.6,61.1-26.1,77.9-8.8,13.5,13.9-39.4,8.8-45,9.7-23.9,4.1-52.5,19.7-78.8,18.8,2.4,9.3,18,7.3,24.2,16.2,9.2,13.2.3,29,23.6,43.1,10.4,6.3,16.8,4.6,24.7,7.8,5.2,2.1,1.8,12.8,13.1,4.3,3.8,29.1-30.1,43.7-54.7,43.3-11.2-.2-42.8-5.2-30.9-19.4,2.2-2.6,40.2,15.1,65.5-3.3,20.4-14.9-13.4-12-21.3-17l-46.6-65.3c-7.7,17.2,17.2,43.3-11.9,38.1,4.6-9.1-4.5-18-4.8-19.1,2.7,3.8-5.9,42.8-11.9,42.8-24.3-8-23.5-41.9-37.8-52.7-8.9-6.7-14.8-2.7-21.7-4.4-8,23.2-12.3,43.1-42.8,38.1-1.3-15.7,14.3-6.4,23.4-22.1,6.5-11.1-2.9-25.6,7.6-30.2,11.8-5.1,2,11.9,11.8,14.2h0Z"/>
    <path class="st1" d="M2880.1,1309.7c-8.2-9.5-42.4-27.8-44-30-7.6-10.3,6.1-20.1,6.9-27.2,2.8-26.4-45.9,6.2-55,6.9-17.1,1.4-51.9-31.1-49.1,24.8,12.8,4.6,7.6-8.5,12.6-9.6,37.9-7.9,21,12.3,25.5,19.1,21.7-33.7,105.4,22.4,109.5,40.6,4.5,20.1-38.3,6.8-47.6,7.1,33.5,37.4,81.2,14.7,41.2-31.8h0ZM2786.5,1274.7c7.5-11.8,30-14.7,42.8-16.7-9.2,21.4-22,17.4-42.8,16.7Z"/>
    <path class="st1" d="M2191.1,2317.8h-173.9c-1.4,0-38.7,11.4-21.4-4.7,1.7-1.6,39.3-9,45.3-9.5,20.8-1.9,128.1-3.6,142,.8,6.3,2,9.2,6.9,8,13.5h0Z"/>
    <path class="st1" d="M2005.3,2351.2l9.5,200c-11.3,3.5-12.8-8.5-13.8-17-3.9-34.2-14-145.9-6.6-172.7,2.3-8.4-1.5-12.4,10.9-10.3Z"/>
    <path class="st1" d="M2028.6,1273.2c-3.5,19.8-6.6,40.4-9.2,61.9-4.8,39.2-7.2,76.1-8.2,110.6-3.6,0-7.1.3-10.7.4,1.9-26.9,3.7-53.7,5.6-80.6,3.1-27.6,6.3-55.1,9.4-82.7-.9-3.3,0-6.8,2.6-9,2.8-2.4,7.1-2.7,10.4-.6h0Z"/>
    <path class="st1" d="M2272.1,1412.8c.8.9,33.5-10.8,19,4.8-.4.4-3.4-3.6-9.3-1.8-.7.2-.2,11.3-12,6.4-4.5-1.9-6.5-7.3-7.3-12-1.8-10.1,6.1-83.5,9.4-95.4,1.8-6.5.5-14.8,9.7-16.5l-9.4,114.3v.2Z"/>
    <path class="st1" d="M1276.5,1832c2.7,17.6-11.2,32.2-9.5,49.6,1.9,19.3,21.6,23.6,23.8,40.9-36.6-11.9-40.5-49.4-26-81,3.3-7.2-.7-11.8,11.7-9.5Z"/>
    <path class="st1" d="M2500.6,1336.7c-4.9,11.8,17.2,58.8,2.3,61.9-13.9,2.9-23.6-66.4-2.3-61.9Z"/>
    <path class="st1" d="M3038.2,1561.4l10.2,22.9-16.7-4.6-4.6,18.9c-19.7-16.3-11.9-38.9,11.1-37.2h0Z"/>
    <path class="st1" d="M1233.6,1751l-4.7,28.5c54-4.3,3.9,26.1-7.5,9.8-3.2-8.2-3.8-41,12.2-38.3Z"/>
    <path class="st1" d="M1163.4,1716.5c5.3,6.5,45.9-3.6,32.1,10.7-4.1,4.2-26.1,6-33.3,2.5-5.8-2.8-24.9-31.5-7.2-31,6.5,3.6,5.3,13.9,8.4,17.8Z"/>
    <path class="st1" d="M1176.5,1555.7l4.8,9.5c-21.8-5.4-43.8-11.1-66.7-9.5-2-12.4,2.2-9.8,12-9.7,16.6.2,34.9,8.1,49.9,9.7h0Z"/>
    <path class="st1" d="M3272.3,1608.1c-9.5,4.3-18,8.6-28.6,9.5,7.8-3.6,14.3-13.8,28.6-9.5Z"/>
    <path class="st1" d="M988,1005.5c.6.3.6.7,0,1v-1Z"/>
    <path class="st1" d="M1805.2,2151.1c-1.7,3.2-8.1-2.8-4.7-9.5,1.7-3.2,8.1,2.8,4.7,9.5Z"/>
    <path class="st1" d="M1798.1,2160.6c3.1,1.6,3.1,3.2,0,4.8v-4.8Z"/>
  </g>
  <image class="st0" width="711" height="372" transform="translate(750.9 1180.1) scale(4.3)" xlink:href="../5.png"/>
  <g>
    <path class="st1" d="M1619.3,2738.7c-5.2-.3-13.3-.5-24.1-.5s-18.9.2-24,.5h-1.4l-2.4-2.6v-7.7l2.5-2.5h1.1c7-.5,8.4-.7,8.6-.8.4-.1.4-.2.5-.5.7-3.6,1-11.6,1-23.9v-41.6c0-12.2-.3-20.3-1-23.8,0-.3,0-.4-.5-.5-.2,0-1.6-.3-8.6-.7h-1.1l-2.5-2.5v-7.9l2.7-2.4h1.3c5,.4,13,.5,24,.5s19-.2,23.9-.5h1.3l2.7,2.4v7.9l-2.5,2.5h-1.1c-7,.5-8.4.7-8.6.8-.4.1-.4.2-.5.5-.7,3.6-1,11.6-1,23.9v41.6c0,12.2.3,20.3,1,23.8q0,.4.5.5c.2,0,1.6.3,8.6.7h1.1l2.5,2.5v7.7l-2.4,2.7h-1.6Z"/>
    <path class="st1" d="M1620.2,2734.9l-.7.8c-5.2-.3-13.3-.5-24.3-.5s-19,.2-24.2.5l-.7-.8v-5.3l.8-.8c5.3-.3,8.4-.6,9.2-.8,1.5-.4,2.4-1.4,2.7-2.9.7-3.8,1-11.9,1-24.4v-41.6c0-12.5-.3-20.6-1-24.4-.3-1.5-1.2-2.5-2.7-2.9-.8-.2-3.9-.5-9.2-.8l-.8-.8v-5.3l.8-.7c5,.3,13.1.5,24.2.5s19.1-.2,24.1-.5l.8.7v5.3l-.8.8c-5.3.3-8.4.6-9.2.8-1.5.4-2.4,1.4-2.7,2.9-.7,3.8-1,11.9-1,24.4v41.6c0,12.5.3,20.6,1,24.4.3,1.5,1.2,2.5,2.7,2.9.8.2,3.9.5,9.2.8l.8.8v5.3h0Z"/>
    <path class="st1" d="M1770.2,2740.8c-5.9-1-10.4-1.7-13.4-2.1l-1.1-.2-.7-.8c-13.3-14.9-35.7-41.8-66.7-79.9v43c0,12.2.3,20.3,1,23.8q0,.4.5.5c.2,0,1.6.3,8.6.7h1.1l2.5,2.5v7.9l-2.7,2.4h-1.2c-5.9-.4-11.6-.5-16.7-.5s-12,.2-18,.5h-1.2l-2.7-2.4v-7.9l2.5-2.5h1.1c7-.5,8.4-.7,8.6-.8.4-.1.4-.2.5-.5.7-3.6,1-11.6,1-23.9v-41.6c0-12.2-.3-20.3-1-23.8,0-.3,0-.4-.5-.5-.2,0-1.6-.3-8.6-.7h-1.1l-2.5-2.5v-7.9l2.7-2.4h1.3c4.9.4,9.6.5,14,.5,7,0,12.8-.2,17.4-.5h1.6c0-.1,1,1.2,1,1.2,17.4,23.2,38,48.4,61.1,74.8v-38c0-12.2-.3-20.3-1-23.8,0-.3,0-.4-.5-.5-.2,0-1.6-.3-8.6-.7h-1.1l-2.5-2.5v-7.9l2.7-2.4h1.2c5.8.4,11.4.5,16.6.5s12.7-.2,18.1-.5h1.3l2.7,2.4v8l-2.6,2.4h-1.1c-7,.5-8.4.7-8.6.8-.4.1-.4.2-.5.5-.7,3.6-1,11.6-1,23.9v31.9c0,23.3.3,38.7,1,45.7l.2,1.8-3.5,2.4-1.2-.2v-.2Z"/>
    <path class="st1" d="M1784.5,2630.4l-.9.8c-5.3.3-8.4.6-9.2.8-1.5.4-2.4,1.4-2.7,2.9-.7,3.8-1,11.9-1,24.4v31.9c0,23.5.3,38.9,1,46l-1,.7c-5.9-1-10.4-1.7-13.4-2.1-14-15.8-38-44.5-71.9-86.3v51.4c0,12.5.3,20.6,1,24.4.3,1.5,1.2,2.5,2.7,2.9.8.2,3.9.5,9.2.8l.8.8v5.3l-.8.7c-6-.3-11.6-.5-16.8-.5s-12.1.2-18.2.5l-.8-.7v-5.3l.8-.8c5.3-.3,8.4-.6,9.2-.8,1.5-.4,2.4-1.4,2.7-2.9.7-3.8,1-11.9,1-24.4v-41.6c0-12.5-.3-20.6-1-24.4-.3-1.5-1.2-2.5-2.7-2.9-.8-.2-3.9-.5-9.2-.8l-.8-.8v-5.3l.8-.7c5,.3,9.7.5,14.2.5,7.1,0,12.9-.2,17.6-.5,18.9,25.2,41,52.1,66.5,80.9v-46c0-12.5-.3-20.6-1-24.4-.3-1.5-1.2-2.5-2.7-2.9-.8-.2-3.9-.5-9.2-.8l-.8-.8v-5.3l.8-.7c5.9.3,11.5.5,16.7.5s12.8-.2,18.2-.5l.8.7v5.3h.1Z"/>
    <path class="st1" d="M1933.3,2740.8c-5.9-1-10.4-1.7-13.4-2.1l-1.1-.2-.7-.8c-13.3-14.9-35.7-41.8-66.7-79.9v43c0,12.2.3,20.3,1,23.8q0,.4.5.5c.2,0,1.6.3,8.6.7h1.1l2.5,2.5v7.9l-2.7,2.4h-1.2c-5.9-.4-11.6-.5-16.7-.5s-12,.2-18,.5h-1.2l-2.7-2.4v-7.9l2.5-2.5h1.1c7-.5,8.4-.7,8.6-.8.4-.1.4-.2.5-.5.7-3.6,1-11.6,1-23.9v-41.6c0-12.2-.3-20.3-1-23.8,0-.3,0-.4-.5-.5-.2,0-1.6-.3-8.6-.7h-1.1l-2.5-2.5v-7.9l2.7-2.4h1.3c4.9.4,9.6.5,14,.5,7,0,12.8-.2,17.4-.5h1.6c0-.1,1,1.2,1,1.2,17.4,23.2,38,48.4,61.1,74.8v-38c0-12.2-.3-20.3-1-23.8,0-.3,0-.4-.5-.5-.2,0-1.6-.3-8.6-.7h-1.1l-2.5-2.5v-7.9l2.7-2.4h1.2c5.8.4,11.4.5,16.6.5s12.7-.2,18.1-.5h1.3l2.7,2.4v8l-2.6,2.4h-1.1c-7,.5-8.4.7-8.6.8-.4.1-.4.2-.5.5-.7,3.6-1,11.6-1,23.9v31.9c0,23.3.3,38.7,1,45.7l.2,1.8-3.5,2.4-1.2-.2v-.2Z"/>
    <path class="st1" d="M1947.6,2630.4l-.9.8c-5.3.3-8.4.6-9.2.8-1.5.4-2.4,1.4-2.7,2.9-.7,3.8-1,11.9-1,24.4v31.9c0,23.5.3,38.9,1,46l-1,.7c-5.9-1-10.4-1.7-13.4-2.1-14-15.8-38-44.5-71.9-86.3v51.4c0,12.5.3,20.6,1,24.4.3,1.5,1.2,2.5,2.7,2.9.8.2,3.9.5,9.2.8l.8.8v5.3l-.8.7c-6-.3-11.6-.5-16.8-.5s-12.1.2-18.2.5l-.8-.7v-5.3l.8-.8c5.3-.3,8.4-.6,9.2-.8,1.5-.4,2.4-1.4,2.7-2.9.7-3.8,1-11.9,1-24.4v-41.6c0-12.5-.3-20.6-1-24.4-.3-1.5-1.2-2.5-2.7-2.9-.8-.2-3.9-.5-9.2-.8l-.8-.8v-5.3l.8-.7c5,.3,9.7.5,14.2.5,7.1,0,12.9-.2,17.6-.5,18.9,25.2,41,52.1,66.5,80.9v-46c0-12.5-.3-20.6-1-24.4-.3-1.5-1.2-2.5-2.7-2.9-.8-.2-3.9-.5-9.2-.8l-.8-.8v-5.3l.8-.7c5.9.3,11.5.5,16.7.5s12.8-.2,18.2-.5l.8.7v5.3h.1Z"/>
    <path class="st1" d="M2046.7,2741.7c-18.7,0-33.6-5.4-44.3-16-10.8-10.6-16.2-25.5-16.2-44.2s10.3-44.8,30.5-55c9.1-4.6,20.5-6.9,33.7-6.9,19,0,34,5.1,44.7,15.2,10.9,10.3,16.4,24.6,16.4,42.4s-6,36.1-17.8,47.7c-11.5,11.2-27.3,16.9-47,16.9h0ZM2048.3,2634.6c-14.3,0-23.5,6.2-28.2,19-2.5,6.8-3.8,14.6-3.8,23.1,0,15.5,2.9,27.9,8.5,36.8,5.6,8.9,13.9,13.2,25.2,13.2s22.6-6.6,27.3-20.1c2.6-7.5,3.9-16,3.9-25.3,0-14.5-2.9-26.1-8.6-34.5-5.6-8.1-13.5-12.1-24.4-12.1h.1Z"/>
    <path class="st1" d="M2108.5,2677.2c0,19.3-5.6,34.5-16.9,45.5-11,10.7-25.9,16-44.9,16s-32-5-42.2-15.1-15.3-24.1-15.3-42.1,9.6-42.7,28.9-52.4c8.8-4.4,19.5-6.6,32.3-6.6,18.3,0,32.5,4.8,42.7,14.4,10.3,9.7,15.5,23.2,15.5,40.2h-.1ZM2084.3,2681.2c0-15.2-3.1-27.3-9.2-36.2-6.1-8.9-15.1-13.4-26.8-13.4s-25.9,7-31,21c-2.6,7.2-3.9,15.2-3.9,24.1,0,16.2,3,29,9,38.4,6.2,9.7,15.4,14.5,27.8,14.5s25-7.4,30.1-22.1c2.7-7.8,4.1-16.6,4.1-26.3h-.1Z"/>
    <path class="st1" d="M2201.2,2739.3l-36.8-89.4c-5.2-12.4-7-14.4-7.2-14.6-.1-.1-1.5-.9-7.6-1h-1.3l-2.4-2.7v-7.6l2.7-2.7h1.3c5.4.4,12.4.5,20.7.5s20-.2,28.5-.5h1.4l2.5,2.7v7.6l-2.4,2.6h-1.3c-5.7,0-8,.6-8.8,1h0c0,.5.5,2.8,4.9,13.9l3.7,9.4,17.1,42.2,14.7-36.8c.7-1.7,2.2-5.9,4.7-12.6,4.7-12.9,5.1-15.5,5.2-16v-.4c-.8-.1-3.1-.4-9.4-.6h-1.2l-2.5-2.5v-7.9l2.8-2.5h1.3c5.9.4,12,.5,18.3.5s10.1-.2,16.6-.5h1.3l2.7,2.6v7.8l-2.4,2.4h-1.1c-4.8.6-5.9,1.1-6,1.1,0,0-.8.4-2,2.4-.8,1.3-2.6,4.9-6.6,14.4l-5.6,13.3-10.5,25.6c-9,21.8-15.1,37.4-18.3,46.3l-.7,2h-16.3Z"/>
    <path class="st1" d="M2267.5,2630.5l-.8.8c-3.7.4-6,.8-7,1.3s-2.1,1.7-3.3,3.6c-1.3,2-3.5,7-6.8,14.8l-5.6,13.3-10.5,25.6c-9.1,22-15.2,37.5-18.3,46.5h-11.9l-36.1-87.5c-3.8-9.1-6.5-14.4-8-15.7-1.2-1.1-4.4-1.7-9.6-1.8l-.8-.9v-5.2l.9-.9c5.5.3,12.4.5,20.8.5s20-.2,28.6-.5l.8.9v5.3l-.7.8c-5.3,0-8.8.5-10.5,1.4-.9.5-1.3,1.4-1.3,2.7s1.7,6.3,5.1,14.9l3.7,9.4,19.9,49.1,17.5-43.8c.7-1.7,2.3-5.9,4.7-12.7,3.6-9.7,5.3-15.4,5.3-17.1s-.6-2.8-1.7-3.1c-1.2-.4-4.7-.7-10.5-.9l-.8-.8v-5.3l.9-.8c5.9.3,12.1.5,18.5.5s10.1-.2,16.7-.5l.9.9v5.3h0Z"/>
    <path class="st1" d="M2352.7,2736.1v-7.3l2.4-2.6,8.1-.5c.8,0,1.2-.2,1.5-.2,0-.5-.4-2.1-2-6.1l-5.6-14.7c-6.6,0-13.3-.1-20.1-.1s-9,0-16.1.1l-2.8,7.6c-3.5,9.7-3.8,12.1-3.8,12.7s0,.2,0,.3h0s.3.2,1.1.3c.9.1,2.9.3,7.7.6h1.1l2.5,2.5v7.5l-2.6,2.6h-1.3c-9.6-.4-15.9-.5-18.6-.5s-7.4.2-15.8.5h-1.2l-2.7-2.4v-7.8l2.6-2.4h1.1c6.5-.4,7.6-1.9,7.6-2,.6-.9,3.2-6.3,13.6-32.2l20.5-51.3c1.5-3.9,3.8-9.9,6.9-18l.7-1.9h15.2l42.4,99.9c1.6,3.7,2.6,4.5,2.7,4.7,1,.3,2.9.7,6.4.7h1.4l2.3,2.8v7.3l-2.4,2.7h-1.4c-11.6-.3-18.6-.5-21-.5-9.6,0-18.6.2-26.8.5h-1.4l-2.4-2.6.2-.2ZM2326.7,2689.8c3.5,0,7.7.1,12.4.1s8.4,0,11.8-.1l-12.3-30.2-11.8,30.2h0Z"/>
    <path class="st1" d="M2405.1,2734.9l-.7.8c-11.6-.3-18.7-.5-21.1-.5-9.6,0-18.6.2-26.9.5l-.7-.8v-5l.8-.9,6.8-.4c2.9-.2,4.3-1.2,4.3-3.1s-.7-3.6-2.2-7.4l-6.4-16.6c-7.2-.1-14.6-.2-22.2-.2s-10.2,0-18.2.2l-3.5,9.6c-2.6,7.3-3.9,11.8-3.9,13.7s1.2,3.2,3.7,3.5c1.4.2,4,.4,8,.6l.8.8v5l-.8.8c-9.7-.3-15.9-.5-18.7-.5s-7.5.2-16,.5l-.8-.7v-5.1l.9-.8c5.4-.3,8.7-1.4,9.9-3.2s5.9-12.8,13.9-32.8l20.5-51.3c1.5-4,3.8-10,6.9-18h11.2l41.7,98c1.6,3.7,3.1,5.8,4.4,6.3,1.7.6,4.2.9,7.5.9l.7.9v5.2ZM2355.3,2692.6l-16.8-41.2-16.1,41.2c4.3.2,9.9.2,16.7.2s12.1,0,16.2-.2h0Z"/>
    <path class="st1" d="M2451.8,2736.3v-7.8l2.5-2.5h1.1c7-.5,8.4-.7,8.6-.8.4-.1.4-.2.5-.5.6-3.6,1-11.6,1-23.9v-44.7c0-10.4,0-15.9-.1-18.9h-8.4c-12.4,0-14.9.5-15.4.7-.1,0-.2,0-.3.1-.2.4-.4,1.5-.7,3.7-.4,2.7-.6,5.5-.7,8.3v1.2l-2.5,2.5h-7.4l-2.7-2.4-.2-14.8c0-3.6-.4-7.4-.9-11.3l-.2-1.4,2.8-3.1,1.6.3c2,.3,9.4.7,33.3.7h31.8c17.7,0,29-.3,33.5-.8l1.4-.2,2.9,2.9-.2,1.5c-.6,3.7-.9,7.6-1,11.6l-.2,14.4-2.5,2.5h-7.3l-2.7-2.2v-1.3c-.4-9-.7-10.8-.8-11.1s-.4-1.2-2.5-1.5c-.5,0-2.7-.2-14.4-.2h-7.6v63.6c0,12.2.3,20.3,1,23.8q0,.4.5.5c.2,0,1.6.3,8.6.7h1.1l2.5,2.5v7.8l-2.6,2.6h-1.3c-5.1-.4-13.2-.5-24-.5s-19.2.2-24,.5h-1.4l-2.5-2.5h-.2Z"/>
    <path class="st1" d="M2530.1,2624.8c-.6,3.9-1,7.9-1,12l-.2,13.1-.8.8h-5l-.9-.7c-.3-6.7-.5-10.6-.9-11.8-.6-2.1-2.3-3.3-5-3.7-1-.2-6-.2-14.8-.2h-10.5c-.1,1.8-.2,9.1-.2,21.9v44.7c0,12.5.3,20.6,1,24.4.3,1.5,1.2,2.5,2.7,2.9.8.2,3.9.5,9.2.8l.8.8v5.3l-.8.8c-5.2-.3-13.3-.5-24.2-.5s-19.3.2-24.2.5l-.7-.7v-5.3l.8-.8c5.3-.3,8.4-.6,9.2-.8,1.5-.4,2.4-1.4,2.7-2.9.7-3.8,1-11.9,1-24.4v-44.7c0-12.9,0-20.2-.2-21.9h-11.2c-9.4,0-14.9.3-16.4.9-.8.3-1.4.7-1.7,1.2-.5.8-.9,2.5-1.2,5-.4,2.8-.6,5.6-.7,8.6l-.8.8h-5l-.9-.8-.2-13.4c0-3.8-.4-7.7-.9-11.7l.7-.8c3.1.5,14.4.8,33.8.8h31.8c17.9,0,29.2-.3,33.8-.8l.8.8v-.2Z"/>
    <path class="st1" d="M2617.8,2738.7c-5.2-.3-13.3-.5-24.1-.5s-18.9.2-24,.5h-1.4l-2.4-2.6v-7.7l2.5-2.5h1.1c7-.5,8.4-.7,8.6-.8.4-.1.4-.2.5-.5.7-3.6,1-11.6,1-23.9v-41.6c0-12.2-.3-20.3-1-23.8,0-.3,0-.4-.5-.5-.2,0-1.6-.3-8.6-.7h-1.1l-2.5-2.5v-7.9l2.7-2.4h1.3c5,.4,13,.5,24,.5s19-.2,23.9-.5h1.3l2.7,2.4v7.9l-2.5,2.5h-1.1c-7,.5-8.4.7-8.6.8-.4.1-.4.2-.5.5-.7,3.6-1,11.6-1,23.9v41.6c0,12.2.3,20.3,1,23.8q0,.4.5.5c.2,0,1.6.3,8.6.7h1.1l2.5,2.5v7.7l-2.4,2.7h-1.6Z"/>
    <path class="st1" d="M2618.6,2734.9l-.7.8c-5.2-.3-13.3-.5-24.3-.5s-19,.2-24.2.5l-.7-.8v-5.3l.8-.8c5.3-.3,8.4-.6,9.2-.8,1.5-.4,2.4-1.4,2.7-2.9.7-3.8,1-11.9,1-24.4v-41.6c0-12.5-.3-20.6-1-24.4-.3-1.5-1.2-2.5-2.7-2.9-.8-.2-3.9-.5-9.2-.8l-.8-.8v-5.3l.8-.7c5,.3,13.1.5,24.2.5s19.1-.2,24.1-.5l.8.7v5.3l-.8.8c-5.3.3-8.4.6-9.2.8-1.5.4-2.4,1.4-2.7,2.9-.7,3.8-1,11.9-1,24.4v41.6c0,12.5.3,20.6,1,24.4.3,1.5,1.2,2.5,2.7,2.9.8.2,3.9.5,9.2.8l.8.8v5.3h0Z"/>
    <path class="st1" d="M2718.9,2741.7c-18.7,0-33.6-5.4-44.3-16-10.8-10.6-16.2-25.5-16.2-44.2s10.3-44.8,30.5-55c9.1-4.6,20.5-6.9,33.7-6.9,19,0,34,5.1,44.7,15.2,10.9,10.3,16.4,24.6,16.4,42.4s-6,36.1-17.8,47.7c-11.5,11.2-27.3,16.9-47,16.9h0ZM2720.5,2634.6c-14.3,0-23.5,6.2-28.2,19-2.5,6.8-3.8,14.6-3.8,23.1,0,15.5,2.9,27.9,8.5,36.8,5.6,8.9,13.9,13.2,25.2,13.2s22.6-6.6,27.3-20.1c2.6-7.5,3.9-16,3.9-25.3,0-14.5-2.9-26.1-8.6-34.5-5.6-8.1-13.5-12.1-24.4-12.1h.1Z"/>
    <path class="st1" d="M2780.7,2677.2c0,19.3-5.6,34.5-16.9,45.5-11,10.7-25.9,16-44.9,16s-32-5-42.2-15.1-15.3-24.1-15.3-42.1,9.6-42.7,28.9-52.4c8.8-4.4,19.5-6.6,32.3-6.6,18.3,0,32.5,4.8,42.7,14.4,10.3,9.7,15.5,23.2,15.5,40.2h-.1ZM2756.5,2681.2c0-15.2-3.1-27.3-9.2-36.2-6.1-8.9-15.1-13.4-26.8-13.4s-25.9,7-31,21c-2.6,7.2-3.9,15.2-3.9,24.1,0,16.2,3,29,9,38.4,6.2,9.7,15.4,14.5,27.8,14.5s25-7.4,30.1-22.1c2.7-7.8,4.1-16.6,4.1-26.3h-.1Z"/>
    <path class="st1" d="M2931.8,2740.8c-5.9-1-10.4-1.7-13.4-2.1l-1.1-.2-.7-.8c-13.3-14.9-35.7-41.8-66.7-79.9v43c0,12.2.3,20.3,1,23.8q0,.4.5.5c.2,0,1.6.3,8.6.7h1.1l2.5,2.5v7.9l-2.7,2.4h-1.2c-5.9-.4-11.6-.5-16.7-.5s-12,.2-18,.5h-1.2l-2.7-2.4v-7.9l2.5-2.5h1.1c7-.5,8.4-.7,8.6-.8.4-.1.4-.2.5-.5.7-3.6,1-11.6,1-23.9v-41.6c0-12.2-.3-20.3-1-23.8,0-.3,0-.4-.5-.5-.2,0-1.6-.3-8.6-.7h-1.1l-2.5-2.5v-7.9l2.7-2.4h1.3c4.9.4,9.6.5,14,.5,7,0,12.8-.2,17.4-.5h1.6c0-.1,1,1.2,1,1.2,17.4,23.2,38,48.4,61.1,74.8v-38c0-12.2-.3-20.3-1-23.8,0-.3,0-.4-.5-.5-.2,0-1.6-.3-8.6-.7h-1.1l-2.5-2.5v-7.9l2.7-2.4h1.2c5.8.4,11.4.5,16.6.5s12.7-.2,18.1-.5h1.3l2.7,2.4v8l-2.6,2.4h-1.1c-7,.5-8.4.7-8.6.8-.4.1-.4.2-.5.5-.7,3.6-1,11.6-1,23.9v31.9c0,23.3.3,38.7,1,45.7l.2,1.8-3.5,2.4-1.2-.2v-.2Z"/>
    <path class="st1" d="M2946,2630.4l-.9.8c-5.3.3-8.4.6-9.2.8-1.5.4-2.4,1.4-2.7,2.9-.7,3.8-1,11.9-1,24.4v31.9c0,23.5.3,38.9,1,46l-1,.7c-5.9-1-10.4-1.7-13.4-2.1-14-15.8-38-44.5-71.9-86.3v51.4c0,12.5.3,20.6,1,24.4.3,1.5,1.2,2.5,2.7,2.9.8.2,3.9.5,9.2.8l.8.8v5.3l-.8.7c-6-.3-11.6-.5-16.8-.5s-12.1.2-18.2.5l-.8-.7v-5.3l.8-.8c5.3-.3,8.4-.6,9.2-.8,1.5-.4,2.4-1.4,2.7-2.9.7-3.8,1-11.9,1-24.4v-41.6c0-12.5-.3-20.6-1-24.4-.3-1.5-1.2-2.5-2.7-2.9-.8-.2-3.9-.5-9.2-.8l-.8-.8v-5.3l.8-.7c5,.3,9.7.5,14.2.5,7.1,0,12.9-.2,17.6-.5,18.9,25.2,41,52.1,66.5,80.9v-46c0-12.5-.3-20.6-1-24.4-.3-1.5-1.2-2.5-2.7-2.9-.8-.2-3.9-.5-9.2-.8l-.8-.8v-5.3l.8-.7c5.9.3,11.5.5,16.7.5s12.8-.2,18.2-.5l.8.7v5.3h0Z"/>
    <path class="st1" d="M3022.9,2741.7c-11.4,0-22.7-2.6-33.7-7.8l-.9-.4-2-3.6.3-1.1c1.4-5.8,2.1-14.2,2.1-25v-1.2l2.5-2.5h7.6l2.4,2.6v3c0,2.7.3,6.2.8,10.6,1.6,2.6,4.5,5,8.6,7,4.6,2.3,9.5,3.5,14.5,3.5,9.3,0,15.5-3,18.9-9.3,1.8-3.3,2.7-6.7,2.7-10.1,0-5.6-2.2-9.3-6.8-11.7-2.5-1.3-6.7-2.3-12.5-3.2-14.6-2.2-24.1-5.1-28.9-8.7-7.4-5.5-11.2-14-11.2-25.3s4-21,11.9-28c8.2-7.2,19.6-10.8,33.9-10.8s23.2,2.1,31.1,6.2l1.1.6,1.1,3.8v.7c-1.4,6-2.1,13.4-2.4,22v1.3l-2.7,2.4h-7.4l-2.5-2.5v-1.2c-.2-6.5-.5-9.7-.7-11.2-1.4-1.8-3.6-3.3-6.8-4.7-3.9-1.6-8-2.4-12.3-2.4-6.3,0-11.1,1.6-14.6,4.8-3.2,2.9-4.8,6.7-4.8,11.4s1.7,8.5,5.2,10.8c1.7,1.1,6.3,2.8,18.9,4.8,1.1.2,4.1.7,9.2,1.6,3.2.6,6.3,1.4,9.1,2.4,5.9,2.2,10.4,5.7,13.4,10.3,3.2,4.9,4.8,11.1,4.8,18.3s-2.7,17.6-8,24.7c-4.6,6.2-10.7,10.9-18.2,14-6.7,2.8-14.8,4.2-24,4.2l.3-.3Z"/>
    <path class="st1" d="M3070.1,2698.9c0,8.6-2.5,16.3-7.4,22.9-4.3,5.8-9.9,10.1-16.9,13-6.4,2.6-14,3.9-22.9,3.9s-21.8-2.5-32.4-7.5l-.9-1.7c1.5-6,2.2-14.6,2.2-25.7l.8-.8h5l.7.8v1.8c0,2.9.3,6.8.9,11.6,1.9,3.4,5.3,6.2,10.1,8.6,5.1,2.5,10.4,3.8,15.9,3.8,10.4,0,17.6-3.6,21.5-10.8,2-3.7,3.1-7.6,3.1-11.6,0-6.7-2.8-11.5-8.4-14.4-2.8-1.4-7.3-2.6-13.4-3.5-14-2.1-23.2-4.8-27.6-8.1-6.7-4.9-10-12.6-10-22.9s3.6-19.3,10.8-25.7c7.7-6.7,18.3-10.1,31.9-10.1s22.2,2,29.7,5.9l.6,1.9c-1.3,6.2-2,13.7-2.3,22.5l-.9.8h-5l-.8-.8c-.2-6.3-.4-10.4-.8-12.3-1.6-2.5-4.5-4.6-8.5-6.3-4.3-1.8-8.8-2.7-13.4-2.7-7,0-12.6,1.9-16.7,5.6-3.8,3.5-5.7,8-5.7,13.6s2.2,10.5,6.5,13.3c2.8,1.8,9.5,3.6,20,5.3,1.1.2,4.2.7,9.2,1.6,3.1.5,5.9,1.3,8.6,2.3,5.3,2,9.3,5,11.9,9.1,2.9,4.5,4.3,10,4.3,16.7h.3Z"/>
  </g>
  <path class="st1" d="M855.8,2205.5c-8.2-62.5-12.5-126.3-12.5-191s4.3-129.3,12.6-192.1c-6,1.2-11.9,2.3-17.7,3.5-5.4,42.6-9,85.6-10.7,128.9-.6,16-1,32.1-1.1,48.2v11.6c0,71.8,5.1,142.9,15.2,212.9,5.9,1.2,11.8,2.3,17.8,3.5-1.3-8.4-2.5-16.8-3.6-25.3v-.2ZM3698.8,1957.1c-1.6-41.7-4.9-83.1-9.9-124.2-.9-7-1.8-14-2.7-21-17.1-125-50.3-246.8-99.2-363.8-36-86.2-80.6-169.4-132.5-247.2-29.2-43.8-60.9-86.1-94.7-126.5-25.7-30.7-52.7-60.4-80.7-88.8-16.4-16.6-33.2-32.8-50.4-48.6-51-46.9-105.4-90.1-162.3-129.1-76.8-52.6-158.9-97.7-244.1-134.2-177.1-75.9-365.3-114.4-559.3-114.4s-382.2,38.5-559.3,114.4c-85.2,36.5-167.3,81.6-244.1,134.2-76.1,52.1-147.6,111.8-212.6,177.7-65,65.8-124,138.3-175.4,215.4-31.6,47.4-60.5,96.7-86.4,147.6-16.6,32.6-32,65.9-46.1,99.6-48,114.8-80.8,234.2-98.2,356.8-1,7-1.9,14-2.8,20.9-5.4,42.6-9,85.6-10.7,128.9-.6,16-1,32.1-1.1,48.2v11.6c0,71.8,5.1,142.9,15.2,212.9v.6c1,6.8,2,13.6,3.1,20.4,1.4,9.1,3,18.2,4.6,27.3,18.7,104.5,48.7,206.6,89.9,305.2,36,86.2,80.6,169.4,132.5,247.2,51.4,77,110.4,149.5,175.4,215.3,65,65.9,136.6,125.6,212.6,177.7,76.8,52.6,158.9,97.7,244.1,134.2,148.4,63.6,304.6,100.9,465.4,111.3,31.1,2,62.5,3,93.9,3,194,0,382.2-38.5,559.3-114.4,85.1-36.5,167.3-81.6,244.1-134.2,76.1-52.1,147.6-111.8,212.6-177.7,65-65.8,124-138.3,175.4-215.3,51.9-77.8,96.5-161,132.5-247.2,45.7-109.4,77.6-223,95.6-339.5,1.1-7,2.1-14,3.1-21.1.3-2.4.7-4.8,1-7.2,8.8-65.4,13.2-131.6,13.2-198.6s-.4-38.3-1.1-57.4h0ZM3667.8,2224.8c-1,6.8-2,13.5-3.1,20.2-2.4,15-5,30-7.9,44.9h0c-1.2,6.1-2.4,12.3-3.6,18.4-.7,3.2-1.3,6.3-2,9.5-24.2,113.6-61.6,222.2-110.6,324.1-1.6,3.3-3.2,6.6-4.8,9.8-48.1,98.1-106.9,189.9-174.9,273.9-3.2,4-6.5,8-9.7,11.9-58.8,71-124.3,136.2-195.4,194.6-4.2,3.5-8.5,7-12.8,10.4-113.8,91.3-241.7,165.3-379.7,218.1-6.1,2.3-12.2,4.6-18.3,6.8-12.2,4.5-24.5,8.8-36.9,13-115.8,38.8-238.1,62.9-364.9,70-3.2.2-6.4.4-9.6.5-5.9.3-11.9.5-17.9.8-6.5.2-13,.4-19.5.6-3.2,0-6.4.2-9.7.2s-9.1.1-13.6.2h-9.6c-202.9,0-395.2-56.7-395.2-56.7-14-4.1-36-10.8-62.8-20.1h0c-1.3-.5-2.7-.9-4-1.4-118.7-41.9-209.9-92.6-245.9-113.7-2.9-1.7-9.1-5.3-16.9-10.1-5-3.1-10-6.1-15-9.2-2.4-1.5-5.4-3.4-9-5.7,0,0-2.5-1.6-4.9-3.1-41.9-26.7-82.3-55.5-121.1-86.4-7.7-6.1-15.3-12.3-22.9-18.6-70.1-58.2-134.7-123-192.8-193.5-4.4-5.3-8.8-10.7-13.1-16.1-9.1-11.4-18.1-23-26.9-34.7-87.6-116.8-149.8-247.9-149.8-247.9-29.4-61.8-50.2-117.3-65-161.5-12.7-38-37.8-118.8-55-222.2-1.1-6.4-2.1-12.9-3.1-19.5,0-.5,0-1-.2-1.5-1.3-8.4-2.5-16.8-3.6-25.3-8.2-62.5-12.5-126.3-12.5-191s4.3-129.3,12.6-192.1c.4-3.1.8-6.2,1.3-9.3.2-1.6.5-3.2.7-4.9.3-2.3.6-4.5,1-6.8,0-1,.3-2,.5-3,4.8-32.3,10.7-64.2,17.6-95.7s4.7-21,7.3-31.5c19.6-81,46.1-159.3,78.7-234.3,1.4-3.3,2.8-6.5,4.3-9.8,70-157.8,167.3-300.6,285.8-422.2,7-7.2,14.1-14.3,21.3-21.4,43.9-43.2,90.5-83.6,139.6-120.8,21.5-16.3,43.5-32.1,66-47.1,5.1-3.4,10.2-6.8,15.3-10.1,56.9-37.2,116.5-70.4,178.5-99.2,39.6-18.4,80.2-35,121.7-49.7,5.4-1.9,10.7-3.8,16.1-5.6,27.4-9.3,55.2-17.9,83.4-25.5,3.7-1,7.4-2,11.1-3,3-.8,6-1.6,9-2.3,105.8-27.2,216.4-42.2,330.1-43.7h23c6.1,0,12.3,0,18.4.2,3.3,0,6.6,0,9.9.2,5.4,0,10.7.3,16,.5,7.2.2,14.4.6,21.6.9,3.3.2,6.7.4,10,.5,77.2,4.4,152.7,15.1,226.2,31.5,32.1,7.2,63.8,15.5,95,24.8h0c13.5,4,26.9,8.3,40.3,12.7,4.9,1.6,9.9,3.3,14.8,5,39.5,13.6,78.3,29,116.2,46,109,48.9,210.8,111.3,303.3,185.1,7.9,6.3,15.8,12.7,23.5,19.1,264,219.8,448.7,534,503.1,891.1.7,4.7,1.4,9.4,2.1,14.1,1,7,1.9,14,2.8,21,.7,5.2,1.3,10.5,1.9,15.7.9,7.4,1.7,14.7,2.4,22.1.8,7.9,1.5,15.8,2.2,23.8,1.7,20.1,3,40.3,3.9,60.7.3,6.6.5,13.3.7,20,.4,14.3.6,28.6.6,43s-.1,23.9-.4,35.9c-.1,6.1-.3,12.2-.6,18.3-.5,13.3-1.2,26.6-2,39.8-.2,2.8-.4,5.6-.6,8.4-.7,10.1-1.5,20.2-2.4,30.3h0c-1.8,20-4,39.9-6.6,59.6-.8,5.8-1.6,11.5-2.4,17.2,0,.3,0,.6-.1.8h-.5Z"/>
  <path class="st1" d="M1061.3,1326.5"/>
  <path class="st1" d="M1129.3,1216.5"/>
  <path class="st1" d="M4077.7,1953.8c-25.3-21.3-62.7-42.2-111.2-62-71.1-29-165-55.8-280.3-79.9-5.9-1.2-11.8-2.4-17.8-3.7,1,7,1.9,14,2.8,21,6,1.2,11.9,2.4,17.7,3.7,111,23.5,201.4,49.4,270,77.4,91.7,37.4,140.2,77.5,140.2,116s-48.5,78.5-140.2,116c-69.2,28.3-160.8,54.4-273.2,78.1-5.9,1.2-11.8,2.5-17.8,3.7,0,.3,0,.6-.1.8-1,6.8-2,13.5-3.1,20.2,6-1.2,12-2.4,18-3.7,116.9-24.3,212.1-51.3,283.9-80.6,48.5-19.8,85.9-40.7,111.2-62,27.5-23.2,41.4-47.6,41.4-72.5s-13.9-49.3-41.4-72.5h0ZM859.3,2230.8c-6-1.2-12-2.3-17.8-3.5-128.3-25.5-231.6-54-307.8-85.1-91.7-37.4-140.2-77.5-140.2-116s48.5-78.5,140.2-116c75.6-30.9,177.7-59.2,304.5-84.5,5.9-1.2,11.8-2.3,17.7-3.5.4-3.1.8-6.2,1.3-9.3.2-1.6.5-3.2.7-4.9.3-2.3.6-4.5,1-6.8-6,1.2-11.9,2.3-17.8,3.5-131.2,25.9-236.9,55-314.9,86.9-48.5,19.8-85.9,40.7-111.2,62-27.5,23.2-41.4,47.6-41.4,72.5s13.9,49.3,41.4,72.5c25.3,21.3,62.7,42.2,111.2,62,78.8,32.2,185.7,61.6,318.6,87.6,5.9,1.2,11.9,2.3,18,3.5-1.1-6.4-2.1-12.9-3.1-19.5,0-.5,0-1-.2-1.5h-.2Z"/>
</svg>